<svg width="181" height="89" viewBox="0 0 181 89" fill="none" xmlns="http://www.w3.org/2000/svg">
<path d="M83.0294 10.5611L76.5252 51.9944C75.7002 55.6902 77.6835 58.1069 81.2377 55.9319C83.8127 54.3527 84.6877 49.9611 85.2335 47.2152C86.7127 39.7652 87.1002 32.0194 88.8002 24.5944L98.8419 23.2652L98.6502 27.1111C101.154 24.3652 106.421 19.7569 110.05 23.0486C113.792 26.4444 110.513 34.3902 105.284 32.8111C103.525 32.2777 104.159 28.7069 102.534 28.6652C100.275 28.9777 98.9627 30.5777 97.5044 32.1277L92.8252 61.4152L82.646 62.9111C82.9627 61.9111 83.2794 60.6277 83.371 59.5902C83.4085 59.1819 83.671 58.5777 83.0335 58.6819C80.1669 64.3319 68.6002 67.3694 67.0252 59.0652C61.4919 69.4194 47.9835 71.2861 46.8252 56.8986C46.096 47.8402 50.996 32.8694 59.8877 28.8444C62.7835 27.5319 68.096 26.1652 69.7169 29.8027L72.5794 13.5027L83.0252 10.5569L83.0294 10.5611ZM68.6669 32.5944C64.896 30.7694 62.4294 34.2444 60.9002 37.1694C58.5835 41.6027 55.8294 53.0986 58.046 57.6319C60.1544 61.9444 64.9794 57.2319 66.0794 54.2694C67.221 51.1903 68.9627 39.2986 69.146 35.7652C69.2002 34.6861 69.2627 33.5569 68.671 32.5902L68.6669 32.5944Z" fill="black"/>
<path d="M170.571 36.7361C169.158 42.9736 165.338 50.5695 158.696 52.407C153.596 53.8153 151.079 51.9445 149.554 47.1278C146.017 55.0236 134.713 59.5486 130.271 49.8278C126.767 57.682 112.713 63.5111 111.188 51.1695C111.458 41.0986 114.096 31.2236 115.092 21.1986C115.154 20.8403 115.387 20.757 115.692 20.6403C116.529 20.3236 125.092 19.082 125.45 19.4153L121.2 46.957C120.975 52.9945 128.033 49.6736 129.4 45.4903C130.038 43.5361 129.479 41.582 129.7 39.632C130.713 30.682 135.458 18.532 145.117 16.1403C147.179 15.6278 149.471 15.1153 151.317 16.5028C152.033 17.0403 152.829 18.257 152.829 18.257L153.288 15.2445L163.242 13.6403C161.863 21.8986 160.546 30.4403 159.446 38.9111C159.142 41.2611 158.425 45.707 162.25 45.1986C163.679 45.0111 165.246 43.157 165.958 41.9445C167.542 39.2445 166.554 36.8403 170.571 36.7361ZM148.492 20.2653C144.492 21.0445 141.875 29.0195 141.067 32.4986C140.304 35.782 137.908 49.4695 144.558 47.1486C147.121 46.2528 148.642 43.1403 149.254 40.6736C150.679 34.9195 150.808 28.207 152.058 22.3403C151.742 20.4445 150.225 19.932 148.492 20.2695V20.2653Z" fill="black"/>
<path d="M47.5493 12.4819L38.8951 69.0986L28.6534 70.6111L32.8659 43.1444C32.4659 41.8902 24.8159 41.1278 23.2993 41.4028C20.5618 49.7902 17.7409 58.2986 16.4243 67.0694C15.7534 71.5486 14.7576 76.7819 16.6993 81.0069C6.41594 83.0152 6.35761 75.6277 7.55761 67.8402C8.91594 59.0277 12.7993 50.7569 15.9243 42.5111C13.6909 43.2986 10.8284 43.7194 9.16177 45.5736C7.40761 47.5277 8.74927 47.6569 8.97844 49.2819C9.63677 53.9361 0.353441 55.4069 0.486774 49.2652C0.657608 41.4527 12.2284 38.0361 18.5368 37.8028C20.9909 32.5861 24.1201 27.4152 27.7284 22.9152C32.7201 16.6944 38.8659 10.8236 47.5534 12.4819H47.5493ZM33.6618 39.4277L36.7451 18.6402C30.7534 23.2402 27.8951 30.9944 24.8118 37.7027C25.5576 38.6694 26.9034 38.1528 28.0243 38.3236C29.9118 38.6111 31.7993 39.0277 33.6618 39.4277Z" fill="black"/>
<path d="M78.9372 70.957C75.6372 71.2695 73.3955 70.7361 70.5497 69.1278C68.358 71.282 65.7413 73.0861 62.5872 73.6945C61.1622 73.9695 59.7997 74.4445 56.7872 73.9028C54.6663 73.5236 52.6413 72.1528 51.0205 70.8028C52.483 70.6028 53.9997 71.4153 55.4538 71.4111C58.2663 71.4111 61.4872 70.0528 63.8705 68.6153C64.6497 68.1445 65.9455 66.582 66.708 66.4486C66.9455 66.407 69.8872 67.932 71.0538 68.1236C74.0413 68.6111 74.9705 67.8403 77.4747 67.5653C83.8413 66.8695 90.133 65.9028 96.4872 65.1778L101.158 34.8028L105.196 37.2778L100.766 66.9486C100.7 67.3695 100.608 67.7903 100.137 67.857C98.7622 68.0611 80.6913 70.782 78.9372 70.9486V70.957Z" fill="black"/>
<path d="M120.629 62.1444C123.879 61.7069 127.837 58.8277 130.329 56.7861C136.208 61.3652 144.271 59.5902 149.167 54.5069C162.567 62.9361 173.7 46.6486 175.383 34.7986C175.662 34.4402 178.579 34.0444 179.242 34.0277C179.85 34.0111 180.3 33.7569 180.154 34.5527C179.45 38.3861 177.558 44.4527 175.796 47.9194C171.542 56.2861 162.133 62.8319 153.079 57.1986C148.121 62.1277 140.421 63.6069 134.504 59.4444C129.254 63.7361 120.7 67.8569 115.033 62.1444C116.8 61.9777 118.912 62.3736 120.625 62.1444H120.629Z" fill="black"/>
<path d="M28.2669 45.5903C28.2669 45.5903 21.1794 72.0736 24.4044 78.9153C24.8044 79.7611 27.1961 84.9403 28.2669 87.1653C22.0919 87.6778 13.8753 90.6986 9.37109 84.8611C14.2836 85.8778 19.1586 84.6486 24.0253 84.0819C22.6628 83.4278 20.1044 78.8903 19.8753 78.0278C18.9211 74.4444 20.9669 64.8694 21.8294 60.9153C22.9378 55.8444 24.4628 50.8694 26.1378 45.9694L28.2628 45.5903H28.2669Z" fill="black"/>
<path d="M121.5 3.71108C129.704 2.51525 129.271 16.4652 120.621 15.5736C113.992 14.8902 115.383 4.60275 121.5 3.71108Z" fill="black"/>
<path d="M172.116 10.5569L168.953 32.6194C168.395 33.6444 165.645 33.3194 164.403 33.6528L167.928 10.9944L172.12 10.5528L172.116 10.5569Z" fill="black"/>
<path d="M44.459 63.6862L47.559 68.9028L46.7549 75.5987L27.8799 78.3111L28.3174 74.9028L42.5132 72.9028C43.0007 70.0445 43.2757 67.1362 43.7007 64.2695C43.7799 63.7487 43.8507 63.0945 44.4549 63.6903L44.459 63.6862Z" fill="black"/>
<path d="M48.708 33.6569L52.2122 10.2069L56.308 11.4986C55.1163 16.3736 55.1538 22.0236 54.008 26.8278C53.4372 29.2278 48.708 33.6611 48.708 33.6611V33.6569Z" fill="black"/>
<path d="M128.916 27.1069C128.196 27.1652 128.541 25.8611 128.587 25.4277C129.083 20.4694 130.729 15.6027 131.446 10.9611C132.108 6.6819 130.466 3.67357 127.379 0.936066C134.058 1.8694 136.621 7.47773 135.296 13.6444C134.287 18.3236 133.233 19.0152 130.925 22.7569C130.133 24.0444 129.4 25.6694 128.916 27.1069Z" fill="black"/>
<path d="M91.8959 5.94028L89.9709 19.8944L85.7334 20.9528L87.5251 7.56111L91.8959 5.94028Z" fill="black"/>
<path d="M5.89538 57.1402L5.29121 59.0819C4.41204 59.2194 3.06204 57.9194 2.42871 57.3277C3.64121 57.1319 4.69121 57.7652 5.89538 57.1402Z" fill="black"/>
<path d="M61.812 54.057C61.5495 54.0903 61.4495 53.182 61.4328 52.7195C61.3245 49.7487 62.0411 46.8445 62.6995 43.9695L64.1286 40.2028C63.5953 44.8362 63.1161 49.6112 61.812 54.057Z" fill="black"/>
<path d="M143.967 42.1277C143.646 41.5402 144.925 34.4403 145.779 30.6611C145.946 29.9194 146.346 27.7194 147.042 27.8861C147.821 28.0736 146.167 35.7986 145.329 39.4527C145.121 40.3652 144.333 42.8027 143.962 42.1277H143.967Z" fill="black"/>
</svg>
