<svg width="156" height="113" viewBox="0 0 156 113" fill="none" xmlns="http://www.w3.org/2000/svg">
<path d="M124.313 38.5486C123.925 37.6611 123.042 37.0986 122.075 37.0986H109.242L112.738 32.2861C114.413 28.8236 119.242 23.7694 113.188 22.1444C108.117 20.7903 102.979 21.0986 98.0376 22.8028C99.8876 20.2111 99.0834 8.21527 97.0876 6.57361C95.1376 4.96527 90.5668 7.82778 88.7168 9.03611C86.7834 10.2903 85.1251 11.8694 83.5501 13.5278L81.4418 17.0069C81.7626 13.8653 80.8459 11.1153 79.4459 8.37777C78.2043 5.96111 74.8251 -0.0263907 71.7501 0.956943C68.9626 1.84444 62.6376 13.4694 64.0376 17.0111L62.1043 13.7444C60.4626 11.4403 52.0584 5.45278 49.6418 5.86944C47.2251 6.28611 46.4876 12.0361 46.3084 14.1611C46.0668 17.1736 46.4709 19.8944 47.0334 22.8069C43.9751 21.4528 40.5126 21.0694 37.1626 21.2444C27.7918 21.7444 27.6626 24.3361 32.1876 31.6611C33.3626 33.5611 34.7459 35.0903 36.2126 36.7153L15.3959 36.8944C14.3334 36.9111 13.4626 37.7819 13.4626 38.8444L13.4126 72.2694H1.65842C0.725089 72.2694 0.0792564 73.2194 0.433423 74.0903L15.4459 110.428C15.7543 111.169 16.4751 111.653 17.2751 111.653C22.7501 111.64 29.6168 111.653 30.1376 111.653C32.3126 111.653 34.8209 104.969 36.5793 104.503C39.5918 103.699 41.1668 111.699 44.1626 111.669C45.5251 111.657 52.8209 111.653 56.5043 111.653C57.7001 111.653 58.6793 110.715 58.7334 109.519C58.7584 108.961 58.7876 108.365 58.8126 107.819C66.3959 113.099 76.4918 114.178 84.6376 109.669C84.9584 109.49 89.1793 106.644 91.2876 106.644C94.5293 106.644 96.4584 109.719 97.1418 111.049C97.3334 111.424 97.7168 111.653 98.1376 111.653H124.229C124.679 111.653 125.088 111.386 125.263 110.974L127.433 105.94H136.258L138.308 110.969C138.483 111.394 138.896 111.674 139.354 111.669L154.538 111.64C155.35 111.64 155.892 110.807 155.567 110.061L124.313 38.5528V38.5486ZM110.967 39.4028L122.221 39.3861L136.679 73.4236H124.7L122.738 67.6736L109.646 67.6903L107.696 73.4236H95.7168L110.963 39.4028H110.967ZM113.496 24.7361C112.45 28.6486 107.958 36.2486 103.658 36.7319C100.308 37.1028 97.0418 35.3653 96.5418 31.8528C95.1876 22.4986 107.521 23.3819 113.496 24.7361ZM83.7709 18.7944C84.3501 14.0611 91.3709 10.1819 95.3334 8.50694C96.6376 12.9986 97.9251 21.9694 93.3834 24.9153C88.8251 27.8778 83.1251 24.1736 83.7709 18.7986V18.7944ZM72.7251 3.49861C75.9126 6.97778 80.5168 13.6278 78.4084 18.4403C76.3001 23.2528 69.1501 23.2528 67.0584 18.4403C64.9334 13.5444 69.5376 7.04028 72.7251 3.49861ZM50.1376 8.50278C54.0834 10.3236 61.1168 13.9778 61.6834 18.7903C62.3293 24.1694 56.6293 27.8694 52.0709 24.9069C47.5293 21.9611 48.8334 12.9903 50.1376 8.49861V8.50278ZM31.9584 24.7361C36.5459 24.2694 41.2501 22.9986 45.6293 25.1694C49.7334 27.2153 50.2168 32.4611 46.6584 35.3778C40.1376 40.7069 33.6793 29.9694 31.9584 24.7361ZM29.1918 108.99H18.0501L3.75426 74.9694H16.1209L24.0418 94.6944L32.3501 74.9694H43.5584L29.1959 108.99H29.1918ZM43.8751 71.6194C42.4251 72.4569 40.2834 72.6194 39.4959 72.6486H16.1168V39.4153C16.1168 39.4153 29.3501 38.9319 35.6293 39.4153C39.2668 39.7069 44.0334 40.7361 46.1918 43.9236C49.1543 48.2694 46.9959 52.8778 43.1668 55.6444C50.6876 58.0778 50.8626 67.6236 43.8751 71.6153V71.6194ZM55.9168 108.99H44.3251V74.9694H55.9168V108.99ZM66.7376 29.5653C91.2251 23.4486 106.492 50.2694 91.2918 69.1236C87.4293 66.9486 82.4543 64.6653 79.1043 63.7611C87.0751 57.3361 84.9334 39.9319 73.1293 40.1569C63.2918 40.3486 60.5876 54.1986 65.4168 61.0403C65.9168 61.7486 67.0751 63.2778 68.6709 64.5361C64.6293 65.3403 61.6168 69.0611 59.9751 72.6653C43.6001 62.0694 47.3209 34.4236 66.7376 29.5611V29.5653ZM88.5709 101.244C84.8668 110.874 72.7584 111.261 64.4376 108.007C63.5209 107.653 59.5751 105.786 59.5751 105.786C59.5751 105.786 62.4251 97.6694 63.2793 95.0611C65.6126 97.2986 76.4334 100.874 78.3668 97.8944C81.0876 93.7236 71.4751 92.5153 68.9626 91.5028C64.7293 89.7944 61.1876 86.9444 60.6043 82.0819C59.1209 69.6194 68.2543 62.5194 80.3584 65.4194C83.8043 66.2403 90.6293 70.4111 90.6293 70.4111C90.6293 70.4111 87.2626 77.8194 86.6376 79.2194C83.5126 76.9819 75.3334 72.2653 72.1459 75.9361C71.3751 76.8069 70.9876 78.2528 71.4709 79.3153C72.2918 81.0694 81.0043 82.8903 83.3209 84.0986C89.5668 87.3653 90.9834 94.9819 88.5709 101.244ZM110.017 108.974H98.4251V83.8569H89.1501L93.0126 74.9694H123.154L119.675 83.8569H110.013V108.974H110.017ZM138.388 103.115H125.733L122.963 108.978H111.563L126.279 74.9736H137.842L152.525 108.978H140.546L138.388 103.115Z" fill="white"/>
<path d="M46.658 35.3778C40.1372 40.7069 33.6788 29.9694 31.958 24.7361C36.5455 24.2694 41.2497 22.9986 45.6288 25.1694C49.733 27.2153 50.2163 32.4611 46.658 35.3778Z" fill="black"/>
<path d="M52.0706 24.9111C47.5289 21.9653 48.8331 12.9945 50.1373 8.50281C54.0831 10.3236 61.1164 13.9778 61.6831 18.7903C62.3289 24.1695 56.6289 27.8695 52.0706 24.907V24.9111Z" fill="black"/>
<path d="M78.4077 18.4403C76.2994 23.2528 69.1494 23.2528 67.0577 18.4403C64.9327 13.5445 69.5369 7.04032 72.7244 3.49866C75.9119 6.97782 80.516 13.6278 78.4077 18.4403Z" fill="black"/>
<path d="M113.496 24.7362C112.45 28.6487 107.958 36.2487 103.658 36.732C100.308 37.1028 97.0415 35.3653 96.5415 31.8528C95.1874 22.4987 107.521 23.382 113.496 24.7362Z" fill="black"/>
<path d="M93.3835 24.9112C88.8252 27.8737 83.1252 24.1695 83.771 18.7945C84.3502 14.0612 91.371 10.182 95.3335 8.50699C96.6377 12.9987 97.9252 21.9695 93.3835 24.9153V24.9112Z" fill="black"/>
<path d="M43.55 74.9694L29.1917 108.99H18.05L3.75 74.9694H16.1167L24.0375 94.6944L32.3458 74.9694H43.55Z" fill="black"/>
<path d="M55.9169 74.9694H44.3252V108.99H55.9169V74.9694Z" fill="black"/>
<path d="M88.571 101.244C84.8669 110.874 72.7585 111.261 64.4377 108.007C63.521 107.653 59.5752 105.786 59.5752 105.786C59.5752 105.786 62.4252 97.6694 63.2794 95.0611C65.6127 97.2986 76.4335 100.874 78.3669 97.8944C81.0877 93.7236 71.4752 92.5152 68.9627 91.5027C64.7294 89.7944 61.1877 86.9444 60.6044 82.0819C59.121 69.6194 68.2544 62.5194 80.3585 65.4194C83.8044 66.2402 90.6294 70.4111 90.6294 70.4111C90.6294 70.4111 87.2627 77.8194 86.6377 79.2194C83.5127 76.9819 75.3335 72.2652 72.146 75.9361C71.3752 76.8069 70.9877 78.2527 71.471 79.3152C72.2919 81.0694 81.0044 82.8902 83.321 84.0986C89.5669 87.3652 90.9835 94.9819 88.571 101.244Z" fill="black"/>
<path d="M123.154 74.9694L119.674 83.8569H110.016V108.974H98.4244V83.8569H89.1494L93.0119 74.9694H123.154Z" fill="black"/>
<path d="M152.521 108.974H140.542L138.388 103.115H125.729L122.963 108.974H111.562L126.279 74.9694H137.837L152.521 108.974Z" fill="black"/>
<path d="M135.075 94.6903H128.521L131.608 86.5903L135.075 94.6903Z" fill="white"/>
<path d="M91.2919 69.1236C87.4294 66.9486 82.4544 64.6653 79.1044 63.7611C87.0752 57.3361 84.9336 39.932 73.1294 40.157C63.2919 40.3486 60.5877 54.1986 65.4169 61.0403C65.9169 61.7486 67.0752 63.2778 68.6711 64.5361C64.6294 65.3403 61.6169 69.0611 59.9752 72.6653C43.6002 62.0695 47.3211 34.4236 66.7377 29.5611C91.2252 23.4445 106.492 50.2653 91.2919 69.1195V69.1236Z" fill="black"/>
<path d="M43.8755 71.6195C42.4255 72.4571 40.2839 72.6195 39.4964 72.6487H16.1172V39.4154C16.1172 39.4154 29.3505 38.932 35.6297 39.4154C39.2672 39.707 44.0339 40.7362 46.1922 43.9237C49.1547 48.2695 46.9964 52.8779 43.1672 55.6445C50.688 58.0779 50.863 67.6237 43.8755 71.6154V71.6195Z" fill="black"/>
<path d="M27.4912 53.032V48.0195H33.4662C37.1912 48.0195 37.1079 53.032 33.4662 53.032H27.4912Z" fill="white"/>
<path d="M27.4915 65.357V60.3445H35.0831C38.8081 60.3445 38.7248 65.357 35.0831 65.357H27.4873H27.4915Z" fill="white"/>
<path d="M136.679 73.4236H124.7L122.738 67.6736L109.646 67.6903L107.696 73.4236H95.7168L110.967 39.4028L122.221 39.3861L136.679 73.4236Z" fill="black"/>
<path d="M119.458 59.2028H112.904L115.992 51.1028L119.458 59.2028Z" fill="white"/>
</svg>
