<svg width="249" height="181" viewBox="0 0 249 181" fill="none" xmlns="http://www.w3.org/2000/svg">
<path d="M42.4558 75.9519H49.8778H50.7188C54.6998 75.9519 56.5028 77.3029 56.5028 79.8579C56.5028 82.4119 54.6998 83.7639 50.7188 83.7639H45.3258H42.4558V75.9519ZM42.4558 103.745V95.4829H53.1228C57.0288 95.4829 58.9818 96.9099 58.9818 99.6149C58.9818 102.317 57.0288 103.745 53.1228 103.745H42.4558ZM26.5488 116.14H48.1808H54.6988C57.7868 116.14 60.5548 115.89 63.0328 115.429C72.4198 113.685 77.3798 108.748 77.3798 101.352C77.3798 101.136 77.3648 100.928 77.3568 100.716C77.2538 98.1509 76.5438 95.8839 75.2858 93.9579C73.5868 91.3579 70.9058 89.3709 67.4188 88.0949C71.0108 86.2989 73.3218 83.5959 74.3048 80.3229C74.6638 79.1269 74.8508 77.8579 74.8508 76.5249C74.8508 76.2989 74.8258 76.0819 74.8148 75.8599C74.5068 69.4449 69.7428 64.5309 60.0068 63.0079C57.9448 62.6849 55.6788 62.5019 53.1658 62.5019H24.5088V115.455V116.14H26.5108H26.5488Z" fill="#231F20"/>
<path d="M180.276 94.3798L185.589 80.6288L190.902 94.3798H180.276ZM176.682 62.5018L153.546 115.429L152.774 117.194H171.526L172.206 115.429L175.198 107.662H195.98L199.276 116.219L199.369 116.46L199.652 117.194H200.055H210.649H218.716L217.85 115.214L194.808 62.5018H178.488H176.682Z" fill="#231F20"/>
<path d="M63.5577 119.774H50.5587L50.2607 120.485L37.2097 151.701L24.4617 120.48L24.1867 119.805L24.1737 119.774H22.1367H4.3457L27.4517 174.418H45.5627L45.9667 173.462L65.7747 126.617L68.6687 119.774H65.7747H63.5577Z" fill="#231F20"/>
<path d="M70.1191 119.774V127.498V171.292V174.418H88.5411V166.938V119.774H73.0071H70.1191Z" fill="#231F20"/>
<path d="M109.369 102.165C108.761 101.849 108.183 101.485 107.624 101.091C102.798 97.6944 99.8284 91.4704 99.8284 83.7064C99.8284 71.8044 106.787 63.4914 116.751 63.4914C126.714 63.4914 133.672 71.8044 133.672 83.7064C133.672 90.5914 131.34 96.2704 127.447 99.8384C126.938 100.305 126.404 100.74 125.843 101.133C132.582 102.771 140.433 106.817 145.288 110.107C145.661 109.695 146.024 109.274 146.378 108.845C151.82 102.247 154.979 93.5784 154.979 83.7064C154.979 61.4234 138.902 45.2504 116.751 45.2504C97.2194 45.2504 82.4174 57.8284 79.1884 76.0784C78.9014 77.6974 78.7084 79.3614 78.6094 81.0644C78.5584 81.9364 78.5234 82.8144 78.5234 83.7064C78.5234 86.7314 78.8364 89.6354 79.4044 92.4104C79.9264 94.9624 80.6764 97.3984 81.6384 99.6984C84.2334 105.9 88.3524 111.11 93.6224 114.947C94.0834 115.282 94.5454 115.618 95.0234 115.932C96.1914 112.939 97.8774 110.259 100.039 108.035C102.584 105.417 105.734 103.451 109.369 102.165Z" fill="#231F20"/>
<path d="M122.123 130.943C116.983 129.601 112.924 128.541 112.924 125.179C112.924 124.954 112.946 124.716 112.979 124.474C113.034 124.078 113.133 123.668 113.284 123.255C113.431 122.852 113.621 122.448 113.869 122.056C114.959 120.332 117.068 118.86 120.569 118.86C122.575 118.86 125.122 119.585 127.817 120.704C128.393 120.943 128.976 121.205 129.562 121.477C130.107 121.73 130.654 121.993 131.201 122.269C133.616 123.489 136.021 124.906 138.152 126.302L143.739 115.094L144.14 114.291L144.775 113.016C144.66 112.933 144.529 112.846 144.409 112.762C144.077 112.528 143.735 112.292 143.373 112.052C137.69 108.279 128.446 103.822 122.001 103.157C121.941 103.151 121.877 103.139 121.817 103.134C121.343 103.09 120.885 103.066 120.445 103.066C118.16 103.066 116 103.282 113.978 103.694C113.772 103.736 113.575 103.789 113.372 103.834C105.562 105.605 99.9063 110.393 97.3443 117.325C97.2013 117.713 97.0673 118.108 96.9433 118.509C96.8153 118.922 96.6983 119.341 96.5913 119.767C96.5743 119.837 96.5623 119.91 96.5453 119.981C96.0653 121.978 95.8063 124.114 95.8063 126.387C95.8063 142.677 107.563 145.878 116.147 148.216C121.378 149.641 125.51 150.766 125.51 154.305C125.51 157.171 123.169 158.505 118.142 158.505C112.412 158.505 105.742 156.145 100.604 152.321L95.0273 168.836C95.8333 169.466 96.7243 170.059 97.6733 170.618C103.115 173.83 110.696 175.817 117.989 175.817C121.385 175.817 124.492 175.323 127.292 174.429C136.83 171.382 142.627 163.45 142.627 152.499C142.627 136.297 130.776 133.202 122.123 130.943Z" fill="#231F20"/>
<path d="M196.438 120.101L196.568 119.775H196.167H175.011H149.289H148.648L141.878 134.06H157.215V174.419H158.942H173.725H175.637V169.12V167.231V134.06H190.862L196.438 120.101Z" fill="#231F20"/>
<path d="M216.306 151.534H205.648L210.978 137.741L216.306 151.534ZM220.846 120.977L220.225 119.559H211.146H202.043L201.178 121.539L182.144 165.083L179.982 170.027L178.062 174.418H179.982H196.872L200.555 164.857H221.402L225.084 174.418H244.206L220.846 120.977Z" fill="#231F20"/>
<path d="M111.035 32.999C111.133 33.05 111.23 33.101 111.33 33.148C111.422 33.192 111.512 33.238 111.605 33.278C112.727 33.769 113.956 34.06 115.249 34.1C115.35 34.103 115.449 34.115 115.551 34.116C115.553 34.116 115.555 34.115 115.557 34.115C115.559 34.115 115.561 34.116 115.563 34.116C115.665 34.115 115.764 34.103 115.865 34.1C117.158 34.06 118.387 33.769 119.509 33.278C119.602 33.237 119.692 33.192 119.784 33.148C119.878 33.104 119.969 33.055 120.061 33.008C122.617 31.694 124.521 29.304 125.169 26.428C125.326 25.732 125.417 25.011 125.418 24.268C125.423 18.533 121.237 11.806 118.324 7.81897C116.771 5.69297 115.579 4.34497 115.579 4.34497C115.579 4.34497 115.569 4.35697 115.557 4.37097C115.545 4.35697 115.534 4.34497 115.534 4.34497C115.534 4.34497 114.343 5.69297 112.79 7.81897C109.877 11.806 105.691 18.533 105.696 24.268C105.697 25.011 105.788 25.732 105.945 26.428C106.591 29.297 108.488 31.683 111.035 32.999Z" fill="#231F20"/>
<path d="M139.05 39.3582C143.219 41.3612 148.089 40.1612 150.907 36.7482C151.406 36.1442 151.849 35.4792 152.203 34.7412C156.011 26.8152 151.941 12.5242 151.941 12.5242C151.941 12.5242 138.241 18.2782 134.433 26.2052C134.398 26.2782 134.373 26.3542 134.339 26.4282C132.148 31.2892 134.217 37.0362 139.05 39.3582Z" fill="#231F20"/>
<path d="M168.256 56.8386C169.178 56.3566 170.063 55.7346 170.911 55.0166C177.225 49.6706 181.338 38.8786 181.338 38.8786C181.338 38.8786 166.918 35.2936 159.124 39.3666C158.156 39.8726 157.314 40.5216 156.596 41.2666C153.734 44.2376 152.939 48.8116 154.954 52.6686C157.476 57.4926 163.432 59.3606 168.256 56.8386Z" fill="#231F20"/>
<path d="M80.2056 36.747C83.0236 40.161 87.8946 41.361 92.0646 39.358C96.2146 37.364 98.3216 32.845 97.4496 28.529C97.2906 27.742 97.0446 26.961 96.6816 26.205C92.8736 18.278 79.1736 12.524 79.1736 12.524C79.1736 12.524 75.1036 26.815 78.9106 34.742C79.2656 35.479 79.7076 36.143 80.2056 36.747Z" fill="#231F20"/>
<path d="M62.8593 56.8387C63.3453 57.0927 63.8443 57.2907 64.3493 57.4567C68.8503 58.9427 73.8933 57.0067 76.1613 52.6687C77.8723 49.3947 77.5573 45.6027 75.6733 42.7137C74.7813 41.3447 73.5413 40.1777 71.9913 39.3667C64.1973 35.2937 49.7773 38.8787 49.7773 38.8787C49.7773 38.8787 55.0663 52.7657 62.8593 56.8387Z" fill="#231F20"/>
<path d="M50.7181 83.7634C54.6991 83.7634 56.5021 82.4124 56.5021 79.8574C56.5021 77.3034 54.6991 75.9514 50.7181 75.9514H49.8771H42.4551V83.7634H45.3251H50.7181Z" fill="white"/>
<path d="M58.9821 99.6144C58.9821 96.9094 57.0291 95.4824 53.1231 95.4824H42.4561V103.744H53.1231C57.0291 103.744 58.9821 102.317 58.9821 99.6144Z" fill="white"/>
<path d="M185.589 80.6294L180.276 94.3804H190.902L185.589 80.6294Z" fill="white"/>
<path d="M225.084 174.418L221.401 164.857H200.554L196.871 174.418H179.982H178.062L179.982 170.027L182.143 165.083L201.178 121.539L202.043 119.558H211.144H220.225L220.845 120.977L244.206 174.418H225.084ZM158.942 174.418H157.215V134.06H141.878L148.648 119.774H149.289H175.011H196.167H196.568L196.438 120.1L190.862 134.06H175.637V167.23V169.119V174.418H173.725H158.942ZM127.292 174.429C124.492 175.323 121.386 175.817 117.989 175.817C110.697 175.817 103.116 173.83 97.6727 170.618C96.7247 170.059 95.8327 169.466 95.0277 168.836L100.604 152.321C105.742 156.145 112.413 158.505 118.143 158.505C123.17 158.505 125.511 157.171 125.511 154.305C125.511 150.766 121.379 149.641 116.147 148.216C107.563 145.878 95.8057 142.677 95.8057 126.387C95.8057 124.114 96.0657 121.978 96.5457 119.981C96.5627 119.91 96.5737 119.837 96.5917 119.767C96.6977 119.341 96.8157 118.922 96.9427 118.509C97.0667 118.108 97.2007 117.713 97.3437 117.325C99.9067 110.393 105.563 105.605 113.373 103.835C113.575 103.789 113.773 103.736 113.978 103.694C116.001 103.282 118.161 103.066 120.446 103.066C120.885 103.066 121.344 103.09 121.818 103.134C121.877 103.139 121.941 103.151 122.001 103.157C128.446 103.822 137.69 108.279 143.374 112.052C143.736 112.292 144.078 112.528 144.409 112.762C144.529 112.846 144.66 112.933 144.776 113.016L144.14 114.291L143.74 115.094L138.152 126.302C136.021 124.906 133.616 123.489 131.201 122.269C130.654 121.993 130.107 121.73 129.562 121.477C128.977 121.205 128.393 120.943 127.817 120.704C125.122 119.585 122.576 118.86 120.569 118.86C117.068 118.86 114.96 120.332 113.869 122.056C113.622 122.448 113.431 122.852 113.284 123.255C113.133 123.668 113.034 124.078 112.98 124.474C112.946 124.716 112.924 124.954 112.924 125.179C112.924 128.541 116.983 129.601 122.123 130.943C130.777 133.202 142.628 136.297 142.628 152.499C142.628 163.45 136.831 171.382 127.292 174.429ZM88.5417 174.418H70.1187V171.292V127.498V119.774H73.0067H88.5417V166.938V174.418ZM45.9657 173.462L45.5617 174.418H27.4517L4.34472 119.774H22.1367H24.1727L24.1857 119.805L24.4607 120.48L37.2087 151.701L50.2607 120.485L50.5577 119.774H63.5567H65.7737H68.6677L65.7737 126.617L45.9657 173.462ZM24.5077 62.5021H53.1657C55.6777 62.5021 57.9437 62.6851 60.0057 63.0081C69.7427 64.5311 74.5057 69.4451 74.8137 75.8601C74.8247 76.0821 74.8497 76.2991 74.8497 76.5251C74.8497 77.8571 74.6637 79.1271 74.3047 80.3221C73.3217 83.5961 71.0097 86.2991 67.4177 88.0951C70.9047 89.3711 73.5857 91.3571 75.2847 93.9581C76.5427 95.8841 77.2537 98.1501 77.3557 100.715C77.3637 100.927 77.3787 101.136 77.3787 101.352C77.3787 108.748 72.4197 113.684 63.0317 115.429C60.5547 115.889 57.7857 116.14 54.6977 116.14H48.1807H26.5477H26.5107H24.5077V115.454V62.5021ZM49.7767 38.8791C49.7767 38.8791 64.1977 35.2931 71.9907 39.3671C73.5417 40.1771 74.7817 41.3451 75.6737 42.7131C77.5567 45.6021 77.8717 49.3951 76.1607 52.6681C73.8937 57.0071 68.8507 58.9421 64.3487 57.4571C63.8447 57.2901 63.3447 57.0921 62.8587 56.8381C55.0657 52.7651 49.7767 38.8791 49.7767 38.8791ZM79.1727 12.5231C79.1727 12.5231 92.8727 18.2781 96.6807 26.2051C97.0447 26.9611 97.2907 27.7421 97.4497 28.5291C98.3207 32.8441 96.2137 37.3641 92.0637 39.3581C87.8947 41.3611 83.0237 40.1611 80.2057 36.7471C79.7067 36.1431 79.2647 35.4791 78.9107 34.7411C75.1027 26.8151 79.1727 12.5231 79.1727 12.5231ZM134.434 26.2051C138.241 18.2781 151.942 12.5231 151.942 12.5231C151.942 12.5231 156.012 26.8151 152.204 34.7411C151.849 35.4791 151.407 36.1441 150.908 36.7481C148.089 40.1611 143.219 41.3611 139.05 39.3581C134.217 37.0361 132.148 31.2891 134.34 26.4281C134.373 26.3541 134.398 26.2781 134.434 26.2051ZM159.124 39.3671C166.917 35.2931 181.338 38.8791 181.338 38.8791C181.338 38.8791 177.225 49.6711 170.91 55.0171C170.063 55.7341 169.177 56.3571 168.255 56.8381C163.431 59.3601 157.475 57.4931 154.954 52.6681C152.938 48.8121 153.733 44.2371 156.595 41.2671C157.313 40.5211 158.156 39.8731 159.124 39.3671ZM115.557 4.37111C115.569 4.35711 115.58 4.34511 115.58 4.34511C115.58 4.34511 116.772 5.69311 118.325 7.81911C121.238 11.8051 125.424 18.5321 125.418 24.2681C125.417 25.0111 125.326 25.7321 125.17 26.4281C124.522 29.3031 122.617 31.6941 120.062 33.0081C119.97 33.0551 119.878 33.1031 119.785 33.1481C119.693 33.1911 119.603 33.2371 119.509 33.2781C118.388 33.7681 117.159 34.0601 115.866 34.1001C115.764 34.1031 115.665 34.1151 115.563 34.1151C115.561 34.1151 115.559 34.1151 115.557 34.1151C115.555 34.1151 115.553 34.1151 115.551 34.1151C115.45 34.1151 115.351 34.1031 115.25 34.1001C113.956 34.0601 112.728 33.7691 111.606 33.2781C111.512 33.2371 111.422 33.1921 111.33 33.1481C111.231 33.1011 111.133 33.0491 111.035 32.9991C108.489 31.6831 106.591 29.2971 105.945 26.4281C105.788 25.7321 105.698 25.0111 105.697 24.2681C105.691 18.5321 109.877 11.8051 112.79 7.81911C114.343 5.69311 115.535 4.34511 115.535 4.34511C115.535 4.34511 115.545 4.35711 115.557 4.37111ZM127.448 99.8381C131.34 96.2701 133.673 90.5921 133.673 83.7061C133.673 71.8041 126.714 63.4911 116.751 63.4911C106.788 63.4911 99.8287 71.8041 99.8287 83.7061C99.8287 91.4701 102.799 97.6941 107.624 101.091C108.184 101.485 108.762 101.85 109.37 102.165C105.735 103.451 102.585 105.417 100.039 108.035C97.8777 110.259 96.1917 112.939 95.0237 115.932C94.5447 115.618 94.0837 115.282 93.6227 114.947C88.3527 111.111 84.2337 105.9 81.6377 99.6981C80.6757 97.3981 79.9267 94.9621 79.4037 92.4101C78.8367 89.6351 78.5227 86.7311 78.5227 83.7061C78.5227 82.8141 78.5577 81.9361 78.6087 81.0641C78.7087 79.3611 78.9017 77.6971 79.1877 76.0781C82.4177 57.8281 97.2197 45.2501 116.751 45.2501C138.902 45.2501 154.979 61.4231 154.979 83.7061C154.979 93.5781 151.821 102.247 146.379 108.845C146.025 109.274 145.662 109.695 145.289 110.107C140.433 106.817 132.582 102.772 125.843 101.133C126.405 100.74 126.938 100.305 127.448 99.8381ZM176.682 62.5021H178.488H194.808L217.85 115.214L218.716 117.194H210.649H200.055H199.652L199.369 116.46L199.276 116.218L195.98 107.662H175.198L172.206 115.429L171.526 117.194H152.774L153.546 115.429L176.682 62.5021ZM224.206 117.818C223.917 117.158 223.471 116.603 222.93 116.171C222.871 115.928 222.799 115.687 222.697 115.454L198.789 60.7621C198.098 59.1801 196.535 58.1581 194.808 58.1581H176.683C175.947 58.1581 175.247 58.3521 174.626 58.6871L174.007 58.0761C180.782 52.1371 184.885 41.7721 185.398 40.4251C185.841 39.2631 185.764 37.9681 185.188 36.8661C184.613 35.7641 183.593 34.9621 182.386 34.6621C182.125 34.5971 175.927 33.0751 169.202 33.0751C164.277 33.0751 160.209 33.8971 157.111 35.5161C156.878 35.6371 156.661 35.7781 156.437 35.9111C160.313 26.7411 156.572 12.9171 156.12 11.3331C155.78 10.1371 154.944 9.1451 153.823 8.6071C153.229 8.3221 152.586 8.1781 151.942 8.1781C151.37 8.1781 150.798 8.29111 150.259 8.51711C148.701 9.17211 134.912 15.1751 130.517 24.3241C130.188 25.0081 129.933 25.7141 129.719 26.4281H129.583C129.69 25.7231 129.762 25.0071 129.763 24.2721C129.773 14.1231 119.954 2.73111 118.834 1.46611C118.27 0.82811 117.525 0.400114 116.717 0.182114C116.647 0.163114 116.575 0.151109 116.505 0.134109C116.488 0.130109 116.471 0.125101 116.453 0.122101C116.172 0.0551008 115.886 0.00409863 115.592 0.00109863C115.573 9.86328e-05 115.554 0.000106812 115.535 0.000106812C115.323 0.000106812 115.116 0.0371082 114.909 0.0671082C114.896 0.0691082 114.882 0.069106 114.869 0.071106C113.877 0.226106 112.956 0.70311 112.281 1.46611C111.162 2.73111 101.342 14.1221 101.352 24.2721C101.353 25.2921 101.466 26.2831 101.668 27.2401L101.622 27.2541C101.387 26.2541 101.053 25.2711 100.598 24.3241C96.2027 15.1751 82.4137 9.17211 80.8557 8.51711C80.3167 8.29111 79.7447 8.1781 79.1727 8.1781C78.5287 8.1781 77.8857 8.3221 77.2917 8.6071C76.1707 9.1451 75.3347 10.1371 74.9947 11.3331C74.5427 12.9171 70.8007 26.7411 74.6777 35.9111C74.4537 35.7781 74.2357 35.6381 74.0037 35.5161C70.9057 33.8971 66.8377 33.0751 61.9127 33.0751C55.1867 33.0751 48.9897 34.5971 48.7287 34.6621C47.5217 34.9621 46.5017 35.7641 45.9267 36.8661C45.3507 37.9681 45.2737 39.2631 45.7167 40.4251C46.2367 41.7901 50.4437 52.4181 57.3827 58.3131C56.0577 58.2121 54.6547 58.1581 53.1647 58.1581H24.5077C22.1087 58.1581 20.1627 60.1031 20.1627 62.5021V115.429H4.34472C2.88872 115.429 1.52872 116.159 0.723718 117.373C-0.0812817 118.587 -0.224278 120.124 0.342722 121.466L23.4497 176.11C24.1297 177.718 25.7057 178.763 27.4517 178.763H45.5617C46.8087 178.763 47.9627 178.223 48.7727 177.332L48.7817 177.345L48.8667 177.234L48.9877 177.076L55.6867 168.332C56.9797 166.67 59.5077 166.723 60.7297 168.438L66.6457 177.069L66.6677 177.032C67.4617 178.077 68.7047 178.763 70.1187 178.763H88.5407C90.9407 178.763 92.8857 176.818 92.8857 174.418V172.653C99.1317 177.293 108.668 180.162 117.989 180.162C125.664 180.162 132.221 177.98 137.149 174.115C137.967 173.543 138.97 172.839 140.049 172.08C144.174 169.177 149.904 170.455 152.404 174.836L153.502 176.76L153.553 176.738C154.323 177.952 155.671 178.763 157.215 178.763H175.637C176.053 178.763 176.448 178.686 176.829 178.577C177.225 178.694 177.638 178.763 178.062 178.763H196.871C198.668 178.763 200.28 177.657 200.925 175.98L203.537 169.201H218.418L221.03 175.98C221.675 177.657 223.287 178.763 225.084 178.763H244.206C245.672 178.763 247.039 178.024 247.842 176.797C248.644 175.57 248.774 174.021 248.187 172.678L224.206 117.818Z" fill="white"/>
<path d="M205.648 151.534H216.306L210.977 137.741L205.648 151.534Z" fill="white"/>
</svg>
