<svg width="164" height="184" viewBox="0 0 164 184" fill="none" xmlns="http://www.w3.org/2000/svg">
<path opacity="0.9" d="M158.335 120.295C155.292 146.024 140.493 166.696 116.406 176.511C71.9127 194.652 15.477 175.426 4.09766 125.943C21.3439 132.366 37.3977 133.081 55.5158 130.69C75.2877 128.086 95.1439 121.189 115.09 120.301C129.473 119.659 144.115 124.908 158.335 120.295ZM110.939 130.831C92.7308 135.421 85.4014 142.109 85.4014 142.109L89.8845 143.965C89.8845 143.965 100.825 135.004 110.945 130.825L110.939 130.831ZM126.745 131.584C112.913 134.279 95.712 146.322 95.712 146.322L100.904 148.842C100.904 148.842 111.518 138.604 126.745 131.584ZM140.279 133.84C120.738 137.929 106.428 152.234 106.428 152.234L111.676 154.546C111.676 154.546 129.89 137.738 140.285 133.834L140.279 133.84ZM147.811 137.598C132.747 141.462 116.26 158.399 116.26 158.399L121.452 161.633C127.499 151.064 138.316 144.685 147.811 137.592V137.598ZM88.3714 177.445C73.437 161.082 47.5958 145.951 29.5339 141.889C62.8058 158.449 74.4552 177.445 74.4552 177.445H88.3714ZM105.674 174.43C99.267 165.931 72.3176 148.668 50.0033 142.863C82.5045 158.899 95.1776 176.343 95.1776 176.343L105.674 174.43ZM69.8145 143.746C83.5058 150.715 98.8395 157.437 112.43 171.876L120.71 168.046C107.125 158.314 93.4958 149.579 69.8145 143.746ZM65.1402 175.842C53.7495 163.36 36.6889 151.126 20.9502 144.753C35.9295 154.315 51.4377 171.854 51.4377 171.854C51.4377 171.854 63.8352 176.016 65.1402 175.842Z" fill="#149F3E"/>
<path d="M89.2277 0.13371C87.5121 -0.0687897 85.9371 1.15184 85.7233 2.87309L82.9502 25.6206C85.0821 25.7218 87.1634 26.02 89.1827 26.4868L91.9671 3.63246C92.1752 1.90559 90.949 0.341838 89.2277 0.128088V0.13371ZM103.06 3.34559C101.389 2.86746 99.6508 3.83496 99.1671 5.50559L92.8502 27.5556C94.8696 28.2643 96.8046 29.1587 98.6327 30.2106L105.214 7.23809C105.692 5.56746 104.725 3.82934 103.054 3.34559H103.06ZM117.814 7.85121C116.25 7.09184 114.366 7.74996 113.612 9.31371L102.334 32.6518C104.083 33.9793 105.703 35.4643 107.177 37.09L119.276 12.0531C120.03 10.4893 119.378 8.61059 117.814 7.85121ZM58.999 3.55934C57.3396 4.07684 56.4171 5.84309 56.9402 7.50246L64.0333 30.1375C65.8615 29.0968 67.7908 28.2193 69.8046 27.5218L62.9421 5.62371C62.4246 3.96434 60.6583 3.05309 58.999 3.56496V3.55934ZM131.567 15.3831C130.172 14.3481 128.203 14.6462 127.168 16.0412L109.489 39.9362C110.828 41.77 111.992 43.7387 112.96 45.82L132.225 19.7818C133.26 18.3868 132.962 16.4181 131.567 15.3831ZM71.7846 0.59496C70.069 0.870585 68.9046 2.49059 69.1802 4.20059L72.8083 26.6162C74.8165 26.1156 76.8977 25.795 79.024 25.66L75.3846 3.19934C75.109 1.48371 73.4721 0.32496 71.779 0.59496H71.7846ZM10.2865 41.7756L46.9108 66.8012C46.5396 64.7593 46.3371 62.6612 46.3371 60.5068C46.3371 59.9387 46.354 59.3762 46.3821 58.8193L13.8358 36.5837C12.4015 35.605 10.444 35.9706 9.46522 37.405C8.48647 38.8393 8.8521 40.7968 10.2865 41.7756ZM7.85647 50.4775C6.2871 49.7518 4.41397 50.4381 3.68272 52.0187C2.95709 53.5937 3.64335 55.4612 5.22397 56.1925L50.5052 77.0612C49.0933 74.4456 48.0133 71.6275 47.3046 68.6631L7.85647 50.4775ZM143.61 25.3731C142.412 24.1187 140.415 24.0737 139.161 25.2775L114.27 49.0825C115.058 51.3606 115.615 53.7456 115.918 56.2093L143.509 29.8225C144.763 28.6243 144.808 26.6331 143.605 25.3731H143.61ZM30.5027 15.3437C29.0908 16.3562 28.7702 18.3193 29.7827 19.7312L49.1608 46.7425C50.0833 44.5937 51.2196 42.5575 52.5358 40.6562L34.8958 16.0637C33.8833 14.6518 31.9202 14.3256 30.5084 15.3437H30.5027ZM46.5565 56.6425C46.8321 54.1506 47.3721 51.7431 48.1427 49.4368L22.9765 25.1762C21.7277 23.9725 19.7365 24.0062 18.5327 25.255C17.329 26.5037 17.3627 28.495 18.6115 29.6987L46.5565 56.6425ZM44.5652 8.12121C42.9902 8.85246 42.304 10.72 43.0352 12.3006L54.8252 37.7087C56.2765 36.0268 57.8852 34.4856 59.6233 33.1075L48.739 9.65121C48.0077 8.07621 46.1346 7.39559 44.5596 8.12121H44.5652Z" fill="#EAC126"/>
<path d="M28.5344 72.8087L14.3819 74.4119L5.38754 71.1381C3.75067 70.5419 2.90129 68.7475 3.50317 67.1106C4.07129 65.4737 5.89379 64.6244 7.53067 65.2262L28.54 72.8031L28.5344 72.8087Z" fill="white"/>
<path d="M150.939 42.0793L127.224 66.7056L124.423 60.5124L146.405 37.7087C147.598 36.4487 149.583 36.4206 150.838 37.6131C152.098 38.8393 152.126 40.8193 150.933 42.0793H150.939Z" fill="white"/>
<path d="M154.02 56.6424L140.059 68.6574L132.982 66.458L149.936 51.8668C151.258 50.7362 153.238 50.8937 154.369 52.2155C155.499 53.5037 155.342 55.5174 154.02 56.648V56.6424Z" fill="white"/>
<path d="M161.914 74.0969L153.927 77.4325C150.94 75.5762 147.042 74.7887 143.233 75.0756L159.495 68.3144C161.098 67.6225 162.955 68.41 163.613 70.0131C164.271 71.6162 163.517 73.4387 161.914 74.1025V74.0969Z" fill="white"/>
<path d="M95.2288 74.2713C92.4894 75.6494 88.3888 71.8413 85.0644 72.1731C81.0988 72.5669 80.4238 77.1175 77.8644 77.8938C76.1319 78.4169 74.6525 77.2694 72.9875 77.4044C67.7282 77.8263 62.6938 79.3731 57.5244 80.11C42.86 59.6463 57.1138 30.8406 82.6063 31.105C97.1075 31.2569 110.641 43.1256 112.368 57.5875C112.599 59.5 113.156 66.925 111.209 67.5438C105.466 67.3525 101.956 69.2763 97.4169 72.2631C96.6632 72.7581 96.1232 73.81 95.2232 74.2656L95.2288 74.2713Z" fill="#149F3E"/>
<path d="M41.7306 124.879C37.8437 124.879 34.9299 123.423 33.0793 120.306C25.7781 128.806 11.1587 126.072 4.86995 117.657C-2.91505 107.245 -1.34004 85.7576 11.6368 80.0595C23.6518 74.7832 40.4087 79.9582 40.9768 94.7182L32.6574 94.3976C29.0012 93.1826 29.0068 86.742 21.0699 87.1751C11.5356 87.6926 10.1349 97.2213 10.8943 104.866C12.1881 117.848 28.2643 121.347 31.9487 108.263C25.1931 108.91 21.1262 106.503 22.1724 99.2351H41.7587L41.7362 124.874L41.7306 124.879Z" fill="#149F3E"/>
<path d="M150.743 89.5376C149.961 87.8557 142.21 87.0232 139.898 90.9551C137.766 90.9551 133.885 90.9551 131.258 90.9551C132.957 76.6732 159 76.3189 160.598 90.5839C162.263 105.389 159.017 119.536 140.854 117.078C127.9 115.328 126.46 98.5714 138.79 95.1064C142.142 94.1614 152.504 93.312 150.743 89.5264V89.5376ZM150.81 99.2407C149.247 103.414 137.445 100.158 140.955 107.836C142.148 110.446 146.17 109.062 147.132 108.348C149.697 106.429 150.81 104.528 150.81 99.2407Z" fill="#149F3E"/>
<path d="M113.201 79.6882V90.2182H107.565C105.22 90.2182 103.313 92.1195 103.313 94.4707V116.431L93.6377 118.045V94.3582C93.6377 79.3676 105.563 79.6939 113.201 79.6939V79.6882Z" fill="#149F3E"/>
<path d="M54.5164 124.806L45.4883 125.56V80.442H52.002C53.3914 80.442 54.5164 81.567 54.5164 82.9564V124.806Z" fill="#149F3E"/>
<path d="M126.748 115.036H117.72V79.6939C120.881 79.9582 124.661 78.5464 126.748 81.5726V115.036Z" fill="#149F3E"/>
<path d="M126.748 77.4383H117.714V69.9121L124.199 69.8839C125.589 69.8783 126.72 70.9977 126.725 72.3871L126.748 77.4383Z" fill="#149F3E"/>
<path d="M76.352 85.1669H72.3583C64.8095 85.1669 58.6445 91.3319 58.6445 98.8806V108.505C58.6445 116.054 64.8095 122.219 72.3583 122.219H76.352C83.9008 122.219 90.0658 116.054 90.0658 108.505V98.8806C90.0658 91.3319 83.9008 85.1669 76.352 85.1669ZM80.5033 108.662C80.5033 111.239 78.3658 113.382 75.7558 113.382H72.9545C70.3445 113.382 68.207 111.244 68.207 108.662V98.7569C68.207 96.1469 70.3445 94.0094 72.9545 94.0094H75.7558C78.3658 94.0094 80.5033 96.1469 80.5033 98.7569V108.662Z" fill="#149F3E"/>
<path d="M78.5967 83.4458L84.6773 77.337C85.0036 77.0051 85.3917 76.7126 85.8529 76.6451C88.3336 76.2626 89.8635 78.3214 91.326 80.1664C88.7104 85.7126 83.5242 83.9464 78.5967 83.4458Z" fill="#149F3E"/>
</svg>
