<svg width="204" height="227" viewBox="0 0 204 227" fill="none" xmlns="http://www.w3.org/2000/svg">
<path d="M174.906 175.364L174.904 175.365C172.177 177.25 169.555 179.235 167.049 181.309L166.993 181.357C164.515 183.41 162.148 185.552 159.9 187.774C159.853 187.82 159.807 187.865 159.762 187.91C157.975 189.68 156.264 191.5 154.633 193.364C154.62 193.379 154.606 193.394 154.594 193.408C154.22 193.835 153.852 194.266 153.487 194.698C153.414 194.785 153.34 194.872 153.267 194.958C152.913 195.38 152.562 195.803 152.214 196.23C152.163 196.295 152.111 196.361 152.057 196.427C151.384 197.258 150.729 198.098 150.087 198.945C148.26 197.588 146.4 196.262 144.501 194.967C144.54 194.926 144.58 194.888 144.617 194.847C144.749 194.711 144.882 194.579 145.014 194.443C146.189 193.237 147.401 192.053 148.651 190.893C148.765 190.786 148.877 190.679 148.992 190.575C149.339 190.256 149.691 189.94 150.043 189.626C150.217 189.47 150.389 189.314 150.565 189.16C150.903 188.86 151.247 188.565 151.59 188.27C151.782 188.105 151.975 187.939 152.169 187.775C152.508 187.486 152.853 187.202 153.198 186.916C153.401 186.75 153.603 186.584 153.807 186.417C154.154 186.137 154.502 185.857 154.854 185.58C155.058 185.417 155.265 185.256 155.472 185.094C155.83 184.816 156.189 184.539 156.551 184.265C156.754 184.112 156.958 183.959 157.163 183.806C157.533 183.529 157.907 183.252 158.282 182.979C158.478 182.837 158.673 182.698 158.87 182.557C159.261 182.275 159.653 181.996 160.052 181.72C160.218 181.603 160.387 181.49 160.554 181.374C160.985 181.076 161.418 180.78 161.855 180.488C161.914 180.448 161.977 180.409 162.037 180.369C163.642 179.303 165.288 178.274 166.968 177.281C167.066 177.224 167.159 177.166 167.256 177.108C167.715 176.84 168.177 176.577 168.641 176.313C168.821 176.212 169.001 176.107 169.182 176.006C169.62 175.76 170.062 175.52 170.506 175.28C170.716 175.165 170.927 175.051 171.138 174.938C171.569 174.706 172.005 174.479 172.44 174.253C172.668 174.137 172.892 174.02 173.12 173.904C173.554 173.684 173.99 173.466 174.429 173.25C174.66 173.136 174.893 173.023 175.124 172.909C175.566 172.696 176.01 172.483 176.454 172.275C176.684 172.168 176.914 172.061 177.146 171.956C177.599 171.746 178.056 171.538 178.515 171.334C178.732 171.238 178.951 171.143 179.17 171.048C179.649 170.838 180.127 170.63 180.608 170.427C180.787 170.351 180.968 170.279 181.147 170.204C181.673 169.985 182.199 169.768 182.731 169.556C182.734 169.555 182.737 169.555 182.738 169.554C182.814 169.604 182.896 169.651 182.972 169.702C183.096 169.779 183.22 169.854 183.34 169.934C183.372 169.954 183.403 169.978 183.436 169.999C180.488 171.681 177.644 173.472 174.906 175.364ZM139.643 211.907C124.281 197.094 105.705 184.988 84.9191 176.378C88.8071 177.344 92.6811 178.436 96.5351 179.67C116.513 186.07 134.411 195.628 149.635 207.369C146.443 209.063 143.11 210.581 139.643 211.907ZM118.708 217.425C103.045 200.105 83.2571 185.92 60.7121 175.898C63.1401 176.566 65.5621 177.281 67.9751 178.054C92.3111 185.85 114.05 198.421 131.657 214.571C127.479 215.769 123.16 216.728 118.708 217.425ZM100.069 218.847C97.5611 218.812 95.0911 218.698 92.6561 218.509C77.4191 200.258 57.7491 185.187 35.1091 174.382C36.5361 174.802 37.9631 175.233 39.3871 175.689C67.3671 184.651 91.2711 199.796 109.439 218.482C106.359 218.715 103.236 218.847 100.069 218.847ZM63.5311 211.861C52.6631 198.741 39.5081 187.249 24.6091 177.785C46.6611 187.112 66.0571 200.536 81.4561 217.034C75.2121 215.868 69.2331 214.143 63.5311 211.861ZM112.788 170.873C113.713 170.386 114.65 169.913 115.595 169.448C116.638 168.934 117.701 168.444 118.768 167.957C120.367 167.227 121.984 166.519 123.634 165.858C124.657 165.447 125.693 165.055 126.736 164.671C128.403 164.058 130.097 163.479 131.811 162.934C132.059 162.856 132.307 162.778 132.555 162.702C134.236 162.179 135.936 161.687 137.66 161.235C137.785 161.203 137.91 161.174 138.034 161.144C138.075 161.133 138.116 161.124 138.157 161.113C138.447 161.043 138.737 160.972 139.027 160.9C137.885 161.377 136.758 161.875 135.639 162.384C135.471 162.461 135.303 162.537 135.136 162.614C134.146 163.07 133.167 163.543 132.193 164.022C131.95 164.143 131.706 164.264 131.463 164.386C130.505 164.867 129.553 165.355 128.612 165.858C128.454 165.942 128.294 166.026 128.137 166.114C127.083 166.683 126.039 167.265 125.008 167.865C124.916 167.918 124.823 167.974 124.73 168.029C124.29 168.286 123.859 168.556 123.424 168.819C122.897 169.136 122.364 169.449 121.844 169.774C121.718 169.852 121.591 169.928 121.466 170.007C120.473 170.633 119.489 171.272 118.52 171.925C118.369 172.026 118.222 172.128 118.071 172.23C117.142 172.861 116.221 173.504 115.313 174.159C115.256 174.2 115.197 174.242 115.14 174.283C114.198 174.966 113.272 175.665 112.355 176.374C112.185 176.507 112.014 176.641 111.843 176.775C111.658 176.919 111.479 177.069 111.296 177.215C109.423 176.455 107.535 175.715 105.62 175.011C107.937 173.557 110.326 172.173 112.788 170.873ZM157.714 162.387C158.04 162.3 158.371 162.228 158.699 162.145C158.698 162.145 158.697 162.146 158.697 162.146C158.571 162.199 158.446 162.257 158.319 162.312C157.298 162.744 156.282 163.185 155.279 163.643C155.126 163.711 154.974 163.781 154.823 163.851C152.589 164.877 150.397 165.966 148.249 167.116C148.102 167.194 147.954 167.274 147.809 167.353C146.743 167.928 145.687 168.516 144.645 169.123C144.572 169.164 144.503 169.208 144.432 169.249C143.889 169.566 143.357 169.897 142.819 170.222C142.375 170.492 141.924 170.754 141.485 171.029C141.365 171.103 141.243 171.177 141.124 171.252C140.122 171.882 139.134 172.524 138.158 173.182C138.087 173.229 138.017 173.277 137.947 173.325C137.877 173.373 137.806 173.42 137.737 173.467C136.801 174.101 135.877 174.746 134.965 175.405C134.906 175.448 134.846 175.49 134.786 175.533C133.841 176.218 132.913 176.918 131.995 177.629C131.825 177.76 131.659 177.891 131.491 178.021C129.667 179.45 127.893 180.929 126.175 182.459C126.109 182.518 126.042 182.577 125.974 182.637C125.871 182.729 125.768 182.822 125.664 182.915C125.457 183.101 125.259 183.294 125.053 183.48C123.089 182.484 121.098 181.516 119.079 180.584C119.808 180.048 120.543 179.519 121.287 179.002C121.919 178.564 122.555 178.132 123.196 177.706C124.78 176.656 126.409 175.657 128.058 174.682C129.08 174.079 130.103 173.477 131.15 172.903C131.833 172.529 132.522 172.161 133.215 171.8C140.842 167.825 149.063 164.652 157.714 162.387ZM173.954 164.595C174.188 164.711 174.425 164.823 174.66 164.941C173.956 165.26 173.257 165.586 172.564 165.918C172.241 166.072 171.92 166.23 171.601 166.388C171.2 166.583 170.798 166.778 170.4 166.979C170.06 167.149 169.723 167.322 169.387 167.496C169.012 167.687 168.638 167.881 168.269 168.076C167.927 168.256 167.588 168.438 167.248 168.621C166.885 168.818 166.524 169.015 166.163 169.214C165.826 169.401 165.49 169.588 165.156 169.777C164.797 169.98 164.441 170.186 164.085 170.392C163.757 170.582 163.429 170.771 163.104 170.964C162.738 171.18 162.376 171.401 162.015 171.621C161.705 171.809 161.393 171.996 161.086 172.186C160.682 172.436 160.283 172.692 159.883 172.946C159.598 173.128 159.311 173.306 159.029 173.49C158.427 173.882 157.828 174.278 157.234 174.678C156.955 174.868 156.68 175.061 156.401 175.252C156.039 175.501 155.679 175.75 155.32 176.001C155.024 176.211 154.731 176.423 154.437 176.635C154.104 176.876 153.771 177.115 153.439 177.358C153.143 177.577 152.847 177.799 152.552 178.02C152.231 178.262 151.911 178.505 151.591 178.75C151.3 178.974 151.009 179.198 150.721 179.425C150.401 179.675 150.084 179.927 149.769 180.18C149.487 180.405 149.206 180.631 148.927 180.858C148.603 181.123 148.281 181.392 147.961 181.661C147.698 181.88 147.436 182.097 147.176 182.317C146.808 182.632 146.445 182.95 146.081 183.268C145.85 183.47 145.616 183.67 145.386 183.874C144.868 184.336 144.354 184.802 143.846 185.271C143.614 185.484 143.39 185.701 143.16 185.915C142.842 186.216 142.524 186.515 142.208 186.818C141.963 187.054 141.719 187.295 141.475 187.535C141.183 187.821 140.894 188.106 140.607 188.395C140.361 188.641 140.118 188.889 139.875 189.138C139.596 189.425 139.316 189.713 139.039 190.003C138.802 190.252 138.565 190.502 138.329 190.754C138.291 190.795 138.253 190.836 138.215 190.877C136.179 189.615 134.107 188.387 132 187.198C132.751 186.546 133.517 185.906 134.288 185.274C134.394 185.188 134.5 185.102 134.605 185.016C135.64 184.174 136.694 183.351 137.767 182.546C137.852 182.481 137.939 182.418 138.026 182.352C139.128 181.532 140.244 180.729 141.382 179.949C141.436 179.911 141.491 179.875 141.544 179.838C142.721 179.033 143.917 178.247 145.13 177.485C145.133 177.484 145.134 177.483 145.135 177.482C153.878 171.995 163.581 167.637 173.951 164.597C173.951 164.597 173.952 164.595 173.954 164.595ZM93.3631 156.125C77.0351 159.263 68.8721 160.832 62.0671 161.478C52.9661 162.342 40.7381 163.417 25.4181 160.654C16.7281 159.087 9.70013 156.764 4.82812 154.889C6.83713 163.552 12.0111 180.321 26.3121 195.654C36.7601 206.854 47.4821 212.36 53.1011 215.183C65.5321 221.432 81.0541 225.998 100.018 226.258C121.806 226.258 141.858 221.031 158.007 211.141C162.196 208.576 169.21 204.075 176.402 196.12C192.609 178.193 196.155 157.415 197.133 147.889C193.443 148.644 187.882 149.586 181.074 149.947C166.952 150.697 163.014 148.122 149.365 147.889C139.92 147.727 132.774 148.879 118.482 151.183C109.479 152.634 109.098 153.1 93.3631 156.125Z" fill="#F9C72B"/>
<path d="M110.578 32.5188L114.565 4.3588C114.861 2.2688 113.406 0.334799 111.316 0.0387993C109.224 -0.260201 107.29 1.1978 106.994 3.2878L103.007 31.4558C105.598 31.5838 108.125 31.9518 110.578 32.5188Z" fill="#F9C72B"/>
<path d="M79.3281 37.1836C81.5521 35.8966 83.8971 34.7986 86.3481 33.9206L78.4131 6.05359C77.8361 4.02259 75.7211 2.8466 73.6901 3.4236C71.6601 4.0016 70.4821 6.11659 71.0601 8.14659L79.3281 37.1836Z" fill="#F9C72B"/>
<path d="M90.9531 32.563C93.4041 31.985 95.9311 31.606 98.5211 31.468L93.7951 3.72799C93.4421 1.64699 91.4651 0.246988 89.3851 0.600988C87.3041 0.955988 85.9041 2.93099 86.2591 5.01199L90.9531 32.563Z" fill="#F9C72B"/>
<path d="M122.131 37.0322L130.654 7.86223C131.247 5.83623 130.084 3.71323 128.058 3.12123C126.031 2.53023 123.909 3.69223 123.317 5.71823L115.102 33.8282C117.554 34.6882 119.903 35.7642 122.131 37.0322Z" fill="#F9C72B"/>
<path d="M140.075 56.5906L163.917 24.3546C165.173 22.6566 164.814 20.2626 163.117 19.0076C161.419 17.7516 159.026 18.1106 157.77 19.8076L135.885 49.3986C137.502 51.6456 138.907 54.0516 140.075 56.5906Z" fill="#F9C72B"/>
<path d="M132.954 45.7488L148.433 14.4938C149.37 12.6018 148.596 10.3088 146.704 9.37178C144.814 8.43478 142.518 9.20878 141.582 11.1008L127.104 40.3348C129.216 41.9588 131.176 43.7688 132.954 45.7488Z" fill="#F9C72B"/>
<path d="M61.3443 57.2598C62.4763 54.6818 63.8523 52.2368 65.4453 49.9508L43.5313 20.3658C42.2753 18.6698 39.8813 18.3138 38.1843 19.5698C36.4873 20.8258 36.1313 23.2198 37.3883 24.9168L61.3443 57.2598Z" fill="#F9C72B"/>
<path d="M177.839 31.4895C176.401 29.9455 173.981 29.8585 172.436 31.2985L141.511 60.1095C142.481 62.8325 143.181 65.6815 143.587 68.6245L177.647 36.8925C179.193 35.4535 179.278 33.0345 177.839 31.4895Z" fill="#F9C72B"/>
<path d="M69.1186 45.3633C70.9046 43.4213 72.8646 41.6413 74.9776 40.0523L60.1106 11.3493C59.1396 9.47428 56.8316 8.74228 54.9576 9.71328C53.0826 10.6843 52.3496 12.9903 53.3206 14.8653L69.1186 45.3633Z" fill="#F9C72B"/>
<path d="M58.8947 84.5137L10.3867 62.0637C8.46771 61.1757 6.1977 62.0107 5.3117 63.9277C4.4247 65.8427 5.2587 68.1157 7.1747 69.0017L62.7427 94.7197C61.0487 91.5327 59.7487 88.1097 58.8947 84.5137Z" fill="#F9C72B"/>
<path d="M13.7672 52.3357L58.3612 81.9087C57.9462 79.5137 57.7192 77.0557 57.7192 74.5437C57.7192 73.8057 57.7382 73.0737 57.7752 72.3457L17.9932 45.9637C16.2332 44.7977 13.8612 45.2777 12.6942 47.0367C11.5272 48.7967 12.0072 51.1687 13.7672 52.3357Z" fill="#F9C72B"/>
<path d="M58.0082 69.6218C58.3522 66.6088 59.0102 63.6908 59.9442 60.8968L29.3212 31.6408C27.7942 30.1828 25.3742 30.2378 23.9162 31.7648C22.4572 33.2908 22.5132 35.7108 24.0402 37.1698L58.0082 69.6218Z" fill="#F9C72B"/>
<path d="M6.60457 87.0068L17.4116 91.4668C20.5556 90.2608 24.0386 89.7068 27.7756 89.8538C30.6166 89.8548 33.2966 90.1708 35.8066 90.7978C35.7596 90.7758 35.7176 90.7508 35.6706 90.7308L9.52157 79.9398C7.56857 79.1348 5.33457 80.0628 4.52957 82.0148C3.72357 83.9668 4.65357 86.2018 6.60457 87.0068Z" fill="#F9C72B"/>
<path d="M181.685 92.4565C184.832 92.8695 187.797 93.6645 190.502 94.7605L201.174 90.3945C203.128 89.5955 204.064 87.3635 203.265 85.4095C202.466 83.4555 200.234 82.5205 198.28 83.3185C191.094 86.2615 183.909 89.2035 176.724 92.1465C178.347 92.1385 180.004 92.2355 181.685 92.4565Z" fill="#F9C72B"/>
<path d="M187.026 46.134C185.532 44.642 183.111 44.645 181.62 46.14L153.8 74.019C153.884 74.103 153.967 74.186 154.044 74.27C155.748 76.154 156.319 78.754 158.082 80.552L187.032 51.54C188.523 50.046 188.52 47.625 187.026 46.134Z" fill="#F9C72B"/>
<path d="M192.151 63.8379C190.783 62.2299 188.371 62.0359 186.763 63.4039L165.218 81.7349C164.967 81.9479 164.755 82.1889 164.574 82.4459C166.682 82.4569 169.546 83.0079 173.503 84.7239L191.717 69.2269C193.325 67.8579 193.52 65.4459 192.151 63.8379Z" fill="#F9C72B"/>
<path d="M152.209 97.5546C150 97.6156 148.899 97.6626 146.596 97.7966L146.082 97.8276V141.821L146.66 141.787C150.837 141.543 152.976 141.465 157.412 141.484L157.96 141.487V103.23C157.96 101.314 157.461 99.8576 156.477 98.9006C155.507 97.9556 154.069 97.5026 152.209 97.5546Z" fill="white"/>
<path d="M152.209 85.3089C150.002 85.3699 148.9 85.4169 146.596 85.5509L146.082 85.5819V95.1099L146.66 95.0769C150.831 94.8319 152.972 94.7539 157.412 94.7729L157.96 94.7759V91.0769C158.005 89.1529 157.527 87.6789 156.543 86.6979C155.564 85.7239 154.11 85.2569 152.209 85.3089Z" fill="white"/>
<path d="M62.1118 98.5049H55.9688V154.742C59.8988 154.313 63.8298 153.884 67.7598 153.455C67.7888 137.077 67.8187 120.7 67.8477 104.323C67.8477 101.169 65.2208 98.5049 62.1118 98.5049Z" fill="white"/>
<path d="M91.9758 115.221C97.1748 115.221 99.7008 119.127 99.7008 127.158C99.6218 135.47 97.0688 139.511 91.8948 139.511C86.7378 139.511 84.0838 135.465 84.0058 127.485C84.0068 119.233 86.6138 115.221 91.9758 115.221ZM91.9758 104.64C78.6988 104.64 71.9658 112.328 71.9658 127.488C71.9658 142.594 78.6988 150.254 91.9758 150.254C105.306 150.254 112.065 142.594 112.065 127.488C112.065 112.328 105.306 104.64 91.9758 104.64Z" fill="white"/>
<path d="M116.394 119.484L116.361 145.352L128.375 143.55L128.435 119.335C128.435 113.373 131.2 110.474 136.89 110.474H141.085V98.1906H138.999C124.329 98.1906 116.724 105.355 116.394 119.484Z" fill="white"/>
<path d="M188.011 121.968V125.13C188.011 130.831 184.608 134.234 178.906 134.234C175.791 134.234 174.238 132.798 174.019 129.753C174.019 126.883 176.053 125.045 180.071 124.286C182.93 123.7 185.597 122.921 188.011 121.968ZM180.934 98.6338C170.77 98.6338 164.941 102.772 163.607 110.932L163.504 111.566H175.348L175.459 111.167C175.949 109.416 177.899 108.565 181.421 108.565C187.536 108.565 187.773 110.942 187.849 111.669C187.849 113.659 185.724 114.888 181.368 115.423C170.107 116.515 162.555 119.423 162.304 130.077C162.304 134.289 163.704 137.809 166.353 140.257C169.145 142.838 173.16 144.175 178.052 144.175C178.79 144.175 179.548 144.145 180.324 144.084C193.091 143.191 199.564 136.978 199.564 125.617V111.003C199.313 102.796 193.045 98.6338 180.934 98.6338Z" fill="white"/>
<path d="M27.5757 126.456C27.5757 129.946 30.3087 132.679 33.7987 132.679H39.7827C38.3217 139.372 33.6407 143.345 27.1887 143.347C17.3537 142.639 12.6127 136.505 12.6927 124.594C12.7717 112.79 17.3147 107.053 26.5817 107.053C31.7957 107.053 35.3487 109.128 37.4447 113.397L37.4857 113.468C38.9047 115.507 40.7207 116.541 42.8817 116.541H50.4387L50.4007 115.959C49.9907 109.637 47.5757 104.649 43.1957 101.113C38.5027 97.8199 32.8087 96.1499 26.2687 96.1479C19.1227 95.8669 12.8937 98.1229 8.22768 102.675C2.78668 107.981 -0.133323 115.969 0.00467689 125.158C0.00467689 142.462 10.4237 154.088 25.9317 154.088C33.7567 154.088 37.8077 151.415 41.4247 147.035L41.6897 148.486C41.9487 151.172 44.6097 153.277 47.7477 153.277H51.1317V122.423H27.5757V126.456Z" fill="white"/>
<path d="M113.813 98.3683C112.425 96.8003 110.953 95.4843 109.402 94.4193C108.119 93.5393 106.393 93.6753 105.216 94.6923L96.4736 102.094C98.6506 101.731 100.848 102.094 103.098 103.194L103.174 103.224C105.546 103.966 107.613 103.67 109.32 102.345L114.199 98.8043L113.813 98.3683Z" fill="white"/>
<path d="M93.3065 95.4153C94.5825 95.4763 95.3885 95.5543 95.6105 95.5683C98.8575 95.7713 100.802 89.7533 104.895 88.4693C109.675 86.9703 113.324 93.2043 118.001 91.1993C119.539 90.5393 118.762 90.0203 121.739 87.7963C124.037 86.0813 127.165 84.3473 131.107 83.5543C133.905 82.9913 136.578 83.0103 139.047 83.4013C139.568 80.8943 139.845 78.2983 139.845 75.6353C139.845 54.6743 122.853 37.6813 101.891 37.6813C80.9295 37.6813 63.9365 54.6743 63.9365 75.6353C63.9365 84.4493 66.9495 92.5543 71.9895 98.9963C78.2625 96.0333 85.2625 95.3833 90.1055 95.3503C91.3245 95.3413 92.4075 95.3723 93.3065 95.4153Z" fill="white"/>
</svg>
