<?xml version="1.0" standalone="no"?>
<!DOCTYPE svg PUBLIC "-//W3C//DTD SVG 20010904//EN"
 "http://www.w3.org/TR/2001/REC-SVG-20010904/DTD/svg10.dtd">
<svg version="1.0" xmlns="http://www.w3.org/2000/svg"
 width="802.000000pt" height="802.000000pt" viewBox="0 0 802.000000 802.000000"
 preserveAspectRatio="xMidYMid meet">
<metadata>
Created by potrace 1.14, written by Peter Selinger 2001-2017
</metadata>
<g transform="translate(0.000000,802.000000) scale(0.100000,-0.100000)"
fill="#000000" stroke="none">
<path d="M3978 7999 c-10 -5 -18 -17 -18 -25 0 -8 -4 -22 -9 -32 -5 -9 -14
-30 -21 -47 -7 -16 -16 -37 -21 -45 -5 -8 -12 -22 -15 -30 -4 -8 -40 -84 -80
-169 -41 -84 -74 -158 -74 -162 0 -5 -4 -9 -8 -9 -4 0 -13 -15 -20 -32 -6 -18
-36 -79 -66 -135 -29 -57 -51 -103 -47 -103 3 0 1 -4 -4 -8 -6 -4 -22 -29 -36
-57 -25 -50 -84 -159 -142 -265 -91 -167 -342 -601 -446 -770 -6 -8 -31 -51
-57 -95 -26 -44 -56 -91 -65 -105 -42 -61 -229 -372 -229 -381 0 -5 -3 -9 -8
-9 -4 0 -18 -21 -32 -47 -13 -27 -27 -50 -30 -53 -8 -7 -347 -573 -383 -640
-16 -30 -33 -59 -37 -65 -8 -10 -33 -55 -73 -130 -12 -22 -24 -42 -27 -45 -23
-23 -349 -680 -359 -725 -2 -5 -9 -21 -16 -35 -11 -21 -21 -44 -30 -70 -1 -3
-8 -18 -15 -35 -7 -16 -14 -34 -16 -40 -1 -5 -16 -44 -31 -85 -16 -41 -31 -79
-32 -85 -13 -40 -43 -150 -41 -150 1 0 -3 -13 -9 -28 -6 -15 -14 -42 -17 -60
-3 -18 -7 -36 -8 -42 -2 -5 -6 -28 -11 -50 -4 -22 -10 -49 -12 -60 -6 -29 -11
-64 -17 -115 -3 -25 -8 -56 -11 -69 -15 -79 -22 -394 -11 -491 5 -39 13 -98
20 -150 22 -160 104 -445 181 -625 10 -22 18 -42 18 -45 2 -14 126 -254 160
-310 61 -102 160 -244 187 -270 3 -3 30 -33 59 -67 30 -35 62 -63 72 -63 23 0
38 28 45 83 3 23 7 58 9 77 3 19 7 46 10 60 3 14 7 48 10 75 3 28 8 57 11 66
2 9 7 34 9 55 3 22 7 53 10 69 2 17 7 48 10 70 3 22 7 49 9 60 3 18 10 67 22
160 1 11 3 20 4 20 1 0 3 14 4 30 2 17 7 55 11 85 4 30 9 71 11 90 2 19 6 47
10 63 3 16 8 46 10 66 4 49 12 116 19 160 9 64 15 115 20 161 5 45 12 99 22
155 2 17 6 46 8 65 2 19 6 55 10 80 3 25 8 60 10 79 8 62 16 116 20 141 4 22
11 77 20 160 2 14 6 41 9 60 3 19 10 71 16 115 6 44 13 91 15 105 3 14 7 50
11 80 3 30 8 63 10 74 2 10 6 44 9 75 4 31 8 63 10 71 2 8 7 38 10 65 3 28 8
64 10 80 15 114 26 206 31 240 2 22 7 56 9 75 3 19 7 51 9 70 8 63 21 133 33
180 3 14 7 115 8 225 2 232 6 255 43 277 21 12 109 45 142 53 3 1 18 7 33 13
16 7 34 12 41 12 7 0 16 3 20 7 3 4 12 8 19 9 7 1 41 12 77 24 36 12 72 23 80
25 8 2 47 13 85 25 39 12 77 23 85 25 8 2 80 20 160 40 80 20 156 38 170 40
14 2 45 8 70 14 52 12 72 15 200 35 149 24 196 30 320 42 30 2 73 6 95 8 238
22 720 23 855 1 14 -2 55 -6 92 -10 37 -3 77 -8 89 -10 13 -3 41 -7 64 -10 53
-7 152 -26 216 -41 33 -7 69 11 69 34 0 9 -18 46 -41 82 -62 100 -319 532
-319 537 0 2 -13 24 -30 48 -16 24 -30 47 -30 50 0 4 -8 19 -19 33 -10 15 -28
43 -39 62 -11 19 -88 151 -171 293 -83 143 -151 261 -151 263 0 2 -11 21 -24
42 -12 20 -38 64 -55 97 -18 33 -42 78 -55 100 -123 221 -296 551 -453 865
-54 107 -101 197 -105 198 -5 2 -8 8 -8 14 0 6 -21 53 -46 104 -48 98 -62 109
-106 83z"/>
<path d="M4477 4353 c-2 -1 -78 -3 -171 -3 -93 -1 -182 -7 -200 -12 -65 -22
-95 -83 -111 -223 -3 -27 -8 -59 -10 -71 -5 -24 -16 -105 -20 -149 -2 -16 -4
-30 -5 -30 -1 0 -3 -13 -5 -30 -2 -16 -7 -50 -11 -75 -4 -25 -8 -54 -9 -65 -8
-56 -16 -98 -22 -108 -4 -6 -1 -7 7 -2 8 5 11 4 6 -3 -9 -14 -23 -93 -31 -172
-4 -35 -8 -67 -10 -70 -2 -3 -6 -30 -9 -60 -4 -30 -9 -66 -11 -80 -5 -26 -14
-95 -19 -140 -2 -14 -7 -45 -11 -70 -4 -25 -9 -56 -11 -70 -2 -14 -5 -41 -8
-60 -3 -19 -8 -55 -11 -78 -4 -24 -8 -52 -10 -61 -2 -10 -6 -44 -9 -77 -4 -32
-9 -68 -12 -79 -13 -53 -11 -114 3 -135 14 -20 21 -21 92 -16 183 13 579 95
706 146 11 4 54 20 95 36 211 79 385 188 520 323 133 133 210 264 259 441 30
108 34 141 35 280 1 164 -8 211 -60 325 -41 88 -151 210 -225 249 -13 7 -40
22 -59 33 -33 18 -150 60 -195 69 -72 14 -137 23 -230 30 -78 6 -235 11 -238
7z"/>
<path d="M6515 2840 c-50 -50 -90 -84 -180 -153 -61 -46 -105 -77 -110 -77 -4
0 -21 -11 -39 -25 -18 -14 -36 -25 -40 -25 -5 0 -20 -8 -34 -19 -56 -39 -228
-122 -412 -197 -58 -24 -113 -53 -122 -64 -27 -34 -29 -30 171 -379 61 -106
111 -195 111 -197 0 -2 15 -27 33 -56 19 -29 37 -60 40 -68 4 -8 16 -30 28
-49 11 -19 54 -93 95 -165 84 -146 103 -170 127 -161 25 10 98 132 185 309 54
110 76 160 70 162 -2 0 3 8 10 16 7 9 14 24 17 34 2 11 15 51 30 89 15 39 28
77 30 85 2 8 15 56 29 105 13 50 27 106 30 125 3 19 7 44 10 55 23 115 28 199
30 445 2 304 -4 316 -109 210z"/>
<path d="M4045 1809 c-55 -9 -122 -20 -150 -23 -27 -4 -57 -9 -65 -11 -8 -2
-41 -6 -72 -10 -70 -6 -102 -20 -118 -50 -13 -24 -14 -32 -25 -180 -4 -49 -9
-106 -11 -125 -2 -19 -6 -73 -9 -120 -4 -47 -8 -101 -10 -120 -1 -19 -6 -73
-9 -120 -4 -47 -9 -103 -11 -125 -2 -22 -7 -78 -11 -125 -3 -47 -7 -101 -9
-120 -2 -19 -7 -84 -11 -145 -4 -60 -8 -128 -10 -150 -3 -22 -5 -47 -5 -55 -2
-29 -30 -105 -47 -125 -31 -37 -113 -75 -144 -67 -4 1 -5 -4 -2 -12 7 -19 88
-52 147 -61 12 -2 33 -6 47 -9 22 -5 78 -15 180 -31 175 -28 483 -23 690 9 25
4 59 10 75 12 160 26 521 140 563 179 31 29 28 41 -37 178 -27 56 -51 112 -55
125 -4 12 -12 22 -17 22 -5 0 -9 6 -9 13 0 6 -15 44 -34 82 -19 39 -56 117
-84 175 -27 58 -73 153 -101 213 -102 214 -155 324 -208 437 -107 225 -117
245 -143 282 -52 76 -116 88 -295 57z"/>
</g>
</svg>
