<svg width="20" height="21" viewBox="0 0 20 21" fill="none" xmlns="http://www.w3.org/2000/svg">
<path d="M14.1665 2.2854H5.83317C3.53198 2.2854 1.6665 4.15088 1.6665 6.45207V14.7854C1.6665 17.0866 3.53198 18.9521 5.83317 18.9521H14.1665C16.4677 18.9521 18.3332 17.0866 18.3332 14.7854V6.45207C18.3332 4.15088 16.4677 2.2854 14.1665 2.2854Z" stroke="#1F1F1F" stroke-width="1.25" stroke-linecap="round" stroke-linejoin="round"/>
<path d="M13.3333 10.0937C13.4361 10.7872 13.3176 11.4955 12.9947 12.1178C12.6718 12.7402 12.1609 13.2448 11.5346 13.5601C10.9083 13.8753 10.1986 13.985 9.50641 13.8736C8.81419 13.7622 8.17472 13.4354 7.67895 12.9396C7.18318 12.4439 6.85636 11.8044 6.74497 11.1122C6.63359 10.42 6.74331 9.71024 7.05852 9.08397C7.37374 8.4577 7.87841 7.94678 8.50074 7.62386C9.12307 7.30094 9.83138 7.18248 10.5249 7.28533C11.2324 7.39023 11.8873 7.71988 12.393 8.22558C12.8987 8.73128 13.2283 9.38622 13.3333 10.0937Z" stroke="#1F1F1F" stroke-width="1.25" stroke-linecap="round" stroke-linejoin="round"/>
<path d="M14.5835 6.0354H14.5918" stroke="#1F1F1F" stroke-width="1.25" stroke-linecap="round" stroke-linejoin="round"/>
</svg>
