<svg width="20" height="21" viewBox="0 0 20 21" fill="none" xmlns="http://www.w3.org/2000/svg">
<path d="M13.3335 7.2854C14.6596 7.2854 15.9313 7.81218 16.869 8.74987C17.8067 9.68755 18.3335 10.9593 18.3335 12.2854V18.1187H15.0002V12.2854C15.0002 11.8434 14.8246 11.4195 14.512 11.1069C14.1994 10.7943 13.7755 10.6187 13.3335 10.6187C12.8915 10.6187 12.4675 10.7943 12.155 11.1069C11.8424 11.4195 11.6668 11.8434 11.6668 12.2854V18.1187H8.3335V12.2854C8.3335 10.9593 8.86028 9.68755 9.79796 8.74987C10.7356 7.81218 12.0074 7.2854 13.3335 7.2854Z" stroke="#1F1F1F" stroke-linecap="round" stroke-linejoin="round"/>
<path d="M4.99984 8.11865H1.6665V18.1187H4.99984V8.11865Z" stroke="#1F1F1F" stroke-linecap="round" stroke-linejoin="round"/>
<path d="M3.33317 5.61873C4.25365 5.61873 4.99984 4.87254 4.99984 3.95207C4.99984 3.03159 4.25365 2.2854 3.33317 2.2854C2.4127 2.2854 1.6665 3.03159 1.6665 3.95207C1.6665 4.87254 2.4127 5.61873 3.33317 5.61873Z" stroke="#1F1F1F" stroke-linecap="round" stroke-linejoin="round"/>
</svg>
