<svg width="263" height="401" viewBox="0 0 263 401" fill="none" xmlns="http://www.w3.org/2000/svg">
<path d="M61.2701 175.105C62.3301 181.906 59.9201 189.195 59.0401 196.605C56.3301 219.396 52.9601 242.105 49.9201 264.855C47.6201 281.995 45.5101 299.145 43.1601 316.275C41.4201 328.955 39.4501 341.615 37.5501 354.275C37.3801 355.375 37.5801 356.825 36.3101 357.355C34.7101 358.015 33.9001 356.555 33.0501 355.635C23.9101 345.775 17.1301 334.395 11.7901 322.135C4.3301 304.985 -0.199898 287.055 0.380102 268.335C0.940102 250.075 5.1701 232.415 12.1901 215.475C23.4501 188.326 38.3901 163.125 53.5401 138.055C69.3701 111.835 85.8901 86.0355 100.67 59.1855C110.47 41.3855 119.72 23.3155 128.14 4.81549C128.91 3.11549 129.11 0.345486 131.53 0.375486C133.52 0.395486 134 2.89549 134.77 4.44549C146.71 28.4255 158.91 52.2855 172.11 75.5855C184.58 97.5955 197.8 119.175 210.67 140.955C211.48 142.335 213.26 143.745 212.19 145.385C210.97 147.266 208.83 146.175 207.12 145.825C182.74 140.885 158.15 140.936 133.62 143.725C110.06 146.395 87.2301 152.475 64.9501 160.625C62.3801 161.565 61.1801 163.076 61.2601 165.805C61.3401 168.635 61.2701 171.465 61.2701 175.105Z" fill="#FAB745"/>
<path d="M152.38 183.475C160.39 183.025 168.38 183.465 176.26 184.865C197.62 188.665 208.29 204.315 205.01 225.795C201.32 249.975 185.64 263.125 164.33 271.325C151.83 276.135 138.75 278.645 125.51 280.355C119.5 281.135 118.65 280.255 119.49 274.345C123.4 246.995 127.29 219.645 131.16 192.295C132.11 185.595 134.04 183.795 140.89 183.495C141.22 183.485 141.56 183.475 141.89 183.475C145.38 183.475 148.88 183.475 152.38 183.475Z" fill="#2E4889"/>
<path d="M96.76 394.295C106.86 393.305 106.92 386.495 107.4 379.255C108.75 358.825 110.65 338.435 112.26 318.025C112.49 315.125 113.49 313.475 116.63 313.055C124.22 312.055 131.76 310.685 139.35 309.665C144.44 308.975 147.34 311.135 150.25 317.245C160.28 338.285 170.31 359.335 180.33 380.375C180.54 380.825 180.73 381.295 180.96 381.735C184.85 389.465 184.86 389.485 176.4 392.565C152.48 401.275 128.1 403.295 103.22 397.405C101.34 396.975 99.23 396.915 96.76 394.295Z" fill="#2E4889"/>
<path d="M262.24 271.055C262.91 295.115 255.13 316.785 243.02 337.145C239.96 342.285 239.33 342.235 236.29 336.985C227.79 322.315 219.37 307.585 210.97 292.855C208.13 287.865 208.55 286.675 214.23 284.505C227.84 279.315 240.62 272.665 251.96 263.445C254.27 261.565 256.32 259.355 258.48 257.285C259.2 256.595 259.87 255.625 260.98 256.035C262.04 256.425 262.21 257.595 262.22 258.575C262.27 262.735 262.24 266.895 262.24 271.055Z" fill="#2E4889"/>
</svg>
