<svg width="1166" height="478" viewBox="0 0 1166 478" fill="none" xmlns="http://www.w3.org/2000/svg">
<path d="M61.2701 175.105C62.3301 181.905 59.9201 189.195 59.0401 196.605C56.3301 219.396 52.9601 242.105 49.9201 264.855C47.6201 281.995 45.5101 299.145 43.1601 316.275C41.4201 328.955 39.4501 341.615 37.5501 354.275C37.3801 355.375 37.5801 356.825 36.3101 357.355C34.7101 358.015 33.9001 356.555 33.0501 355.635C23.9101 345.775 17.1301 334.395 11.7901 322.135C4.3301 304.985 -0.199898 287.055 0.380102 268.335C0.940102 250.075 5.1701 232.415 12.1901 215.475C23.4501 188.325 38.3901 163.125 53.5401 138.055C69.3701 111.835 85.8901 86.0355 100.67 59.1855C110.47 41.3855 119.72 23.3155 128.14 4.81549C128.91 3.11549 129.11 0.345486 131.53 0.375486C133.52 0.395486 134 2.89549 134.77 4.44549C146.71 28.4255 158.91 52.2855 172.11 75.5855C184.58 97.5955 197.8 119.175 210.67 140.955C211.48 142.335 213.26 143.745 212.19 145.385C210.97 147.265 208.83 146.175 207.12 145.825C182.74 140.885 158.15 140.935 133.62 143.725C110.06 146.395 87.2301 152.475 64.9501 160.625C62.3801 161.565 61.1801 163.075 61.2601 165.805C61.3401 168.635 61.2701 171.465 61.2701 175.105Z" fill="#FAB745"/>
<path d="M568.53 232.286C575.69 232.286 582.86 232.176 590.02 232.316C596.26 232.436 598.16 234.616 597.43 240.726C596.9 245.186 596.11 249.636 594.52 253.866C591.41 262.126 586.67 265.476 577.89 265.526C566.73 265.596 555.57 265.686 544.41 265.506C539.98 265.436 537.61 266.866 537 271.486C533.89 295.076 530.5 318.636 527.46 342.236C526.23 351.776 525.01 361.356 526.16 371.066C526.75 376.096 524.49 379.366 519.26 381.076C505.75 385.506 492.08 385.866 478.33 383.166C466.83 380.906 461.74 374.466 462 362.806C462.33 347.616 465.64 332.766 467.65 317.766C469.71 302.426 471.86 287.096 474.21 271.796C474.92 267.196 473.68 265.226 468.86 265.506C464.38 265.766 459.87 265.546 455.37 265.616C452.31 265.656 450.09 264.476 449.53 261.346C447.33 249.076 454.37 233.026 470.38 232.376C480.16 231.976 480.11 231.946 481.03 221.996C482.34 207.666 487.97 195.416 498.48 185.426C507.85 176.526 518.99 170.696 530.94 166.256C550.38 159.036 570.29 158.466 590.46 162.416C595.26 163.356 599.62 165.416 603.66 168.156C611.83 173.686 613.8 182.356 608.55 190.736C604.94 196.486 599.48 199.926 593.09 201.886C589.12 203.096 585.96 201.376 583.24 198.576C579.57 194.796 575.38 191.926 570.08 190.906C559.61 188.896 550.66 194.096 547.58 204.406C545.19 212.396 544.52 220.756 543.09 228.956C542.48 232.426 544.76 232.346 547.02 232.356C554.18 232.366 561.34 232.366 568.51 232.366C568.53 232.316 568.53 232.296 568.53 232.286Z" fill="#2E4889"/>
<path d="M279.04 315.286C280.99 282.536 299.05 254.636 334.19 238.136C349.15 231.116 364.94 226.816 381.41 226.556C397.58 226.306 413.42 229.236 427.19 238.386C445.69 250.666 449.37 274.476 436.16 292.296C425.47 306.706 410.54 314.146 393.72 318.636C379.01 322.566 363.91 323.946 348.84 325.426C344.89 325.816 343.83 327.096 345.27 330.776C348.62 339.336 354.08 345.876 363.31 347.956C386.07 353.086 406.29 347.436 423.59 332.086C429.23 327.076 431.4 327.966 435.56 334.156C438.73 338.876 438.45 344.026 436.97 349.076C434.63 357.096 430.43 363.896 423.46 368.906C408.13 379.906 391.07 385.646 372.26 386.626C354.65 387.536 337.29 386.376 320.57 380.426C293.16 370.686 278.9 350.146 279.04 315.286ZM396.03 267.846C396.02 258.696 389.78 252.856 380.66 253.646C375.45 254.096 370.58 255.706 366.3 258.836C351.37 269.776 345.41 285.386 343.23 302.986C342.87 305.886 344.29 306.456 346.75 306.076C361.33 303.836 374.87 299.096 385.83 288.816C391.79 283.216 395.72 276.346 396.03 267.846Z" fill="#2E4889"/>
<path d="M905.78 390.785C886.71 390.525 868.27 387.615 851.76 377.235C835.86 367.245 827.5 352.465 825.22 334.085C821.94 307.685 828.95 284.005 847.48 265.175C877.98 234.185 920.58 218.725 958.63 233.275C973.17 238.225 986.12 250.485 988.55 266.525C991.41 285.365 982.67 298.665 968.06 308.925C952.95 319.535 935.62 324.195 917.58 326.485C909.99 327.455 902.34 327.935 894.72 328.735C889.51 329.285 888.86 330.335 890.79 335.085C895.53 346.745 904.82 352.145 916.8 353.095C936.55 354.655 953.91 348.555 968.98 335.795C975.33 330.425 978.38 331.095 981.47 338.815C985.4 348.635 982.56 357.005 975.76 364.545C962.21 379.585 944.49 386.065 925.22 389.485C918.79 390.635 912.31 390.765 905.78 390.785ZM941.11 271.765C941.01 262.705 935.47 257.175 926.98 256.915C922.87 256.785 919.13 258.035 915.46 259.645C899.9 266.485 889.55 290.465 888.23 307.575C888.08 309.585 889.09 309.695 890.69 309.485C908.17 307.165 923.95 301.415 935.62 287.325C939.51 282.625 940.82 277.035 941.11 271.765Z" fill="#2E4889"/>
<path d="M803.31 232.365C810.31 232.365 817.31 232.445 824.31 232.335C828.08 232.275 829.64 234.135 830.14 237.665C832.59 255.115 823.76 265.515 806.35 265.545C796.85 265.565 787.35 265.665 777.85 265.515C774.14 265.455 772.53 266.775 772.07 270.575C769.74 289.915 766.1 309.075 764.62 328.525C763.67 340.985 769.12 347.105 781.53 347.215C791.71 347.305 800.96 344.405 808.94 338.055C811.71 335.845 813.75 336.435 815.85 338.645C819.52 342.525 820.08 347.235 819.03 352.175C816.98 361.785 811.78 369.315 803.34 374.385C782.85 386.705 760.77 390.055 737.41 385.685C729.68 384.235 722.15 382.305 715.58 377.585C702.61 368.265 697.81 355.275 699.65 340.015C702.42 317.045 705.87 294.145 709.3 271.255C709.99 266.685 708.89 265.205 704.32 265.545C700.01 265.865 695.66 265.555 691.33 265.605C688.68 265.635 687.34 264.465 687.14 261.795C686.15 248.285 688.39 237.395 706.21 233.505C716.06 231.355 716.01 231.185 716.05 220.965C716.08 213.965 716.16 206.965 716.17 199.965C716.18 195.225 718.01 191.825 722.36 189.445C735.57 182.205 749.39 177.245 764.63 177.325C777.52 177.395 783.97 184.985 782.17 197.675C780.77 207.565 779.54 217.485 777.91 227.345C777.26 231.295 778.61 232.445 782.3 232.375C789.3 232.245 796.3 232.335 803.3 232.335C803.31 232.345 803.31 232.355 803.31 232.365Z" fill="#2E4889"/>
<path d="M1102.48 247.216C1102.48 251.546 1102.45 255.886 1102.49 260.216C1102.52 262.796 1102.12 263.906 1099.07 262.536C1086.94 257.056 1076.55 259.606 1068.54 270.076C1053.85 289.296 1051.12 310.616 1059.57 332.876C1065 347.186 1077.83 352.406 1092.05 352.966C1109.79 353.676 1125.33 346.916 1138.74 335.596C1142.45 332.466 1144.74 333.306 1147.51 336.136C1151.53 340.236 1153.21 345.086 1152.1 350.756C1150.37 359.576 1146.15 366.886 1139.09 372.586C1123.51 385.156 1105.21 390.146 1085.75 391.376C1067.85 392.506 1050.27 390.896 1033.06 384.856C1010.61 376.976 993.81 355.636 992.12 331.686C988.58 281.606 1023.11 243.646 1067.41 233.886C1077.24 231.726 1087.18 231.176 1097.14 230.416C1101.06 230.116 1103.07 231.256 1102.59 235.716C1102.18 239.506 1102.51 243.376 1102.51 247.206C1102.5 247.216 1102.49 247.216 1102.48 247.216Z" fill="#2E4889"/>
<path d="M635.46 384.616C630.83 384.556 626.19 384.626 621.56 383.686C606.67 380.646 598.49 371.006 598.17 355.706C597.92 344.166 600.32 332.866 601.58 321.466C604.11 298.656 608.09 275.936 609.17 253.076C609.61 243.866 613.44 240.646 620.04 237.496C632.38 231.606 645.27 227.926 659.04 228.386C671.98 228.816 677.74 236.416 675.84 249.276C671.66 277.576 667.64 305.906 663.71 334.246C662.21 345.026 667.48 348.906 677.6 344.806C684.16 342.146 687.75 344.436 687.41 351.746C686.94 361.886 680.09 368.406 672.61 373.706C661.62 381.496 649.19 385.556 635.46 384.616Z" fill="#2E4889"/>
<path d="M152.38 183.475C160.39 183.025 168.38 183.465 176.26 184.865C197.62 188.665 208.29 204.315 205.01 225.795C201.32 249.975 185.64 263.125 164.33 271.325C151.83 276.135 138.75 278.645 125.51 280.355C119.5 281.135 118.65 280.255 119.49 274.345C123.4 246.995 127.29 219.645 131.16 192.295C132.11 185.595 134.04 183.795 140.89 183.495C141.22 183.485 141.56 183.475 141.89 183.475C145.38 183.475 148.88 183.475 152.38 183.475Z" fill="#2E4889"/>
<path d="M96.76 394.295C106.86 393.305 106.92 386.495 107.4 379.255C108.75 358.825 110.65 338.435 112.26 318.025C112.49 315.125 113.49 313.475 116.63 313.055C124.22 312.055 131.76 310.685 139.35 309.665C144.44 308.975 147.34 311.135 150.25 317.245C160.28 338.285 170.31 359.335 180.33 380.375C180.54 380.825 180.73 381.295 180.96 381.735C184.85 389.465 184.86 389.485 176.4 392.565C152.48 401.275 128.1 403.295 103.22 397.405C101.34 396.975 99.23 396.915 96.76 394.295Z" fill="#2E4889"/>
<path d="M1111.3 249.605C1111.3 244.445 1111.34 239.945 1111.29 235.445C1111.25 232.225 1112.93 231.045 1115.97 231.035C1120.27 231.015 1124.2 232.415 1127.94 234.245C1141.8 241.015 1153.65 250.095 1161.55 263.755C1167.52 274.055 1166.83 288.735 1159.49 298.095C1155.22 303.545 1149.43 305.685 1142.7 304.715C1126.28 302.365 1116.01 291.905 1113.26 275.275C1111.8 266.545 1110.72 257.805 1111.3 249.605Z" fill="#FAB745"/>
<path d="M620.82 189.065C620.36 181.865 625.21 176.405 630.54 172.035C643.52 161.385 658.7 158.485 674.66 163.335C692.14 168.645 695.66 185.075 682.49 197.755C669.88 209.895 649.24 214.345 631.48 205.775C625 202.655 620.41 197.745 620.82 189.065Z" fill="#2E4889"/>
<path d="M262.24 271.055C262.91 295.115 255.13 316.785 243.02 337.145C239.96 342.285 239.33 342.235 236.29 336.985C227.79 322.315 219.37 307.585 210.97 292.855C208.13 287.865 208.55 286.675 214.23 284.505C227.84 279.315 240.62 272.665 251.96 263.445C254.27 261.565 256.32 259.355 258.48 257.285C259.2 256.595 259.87 255.625 260.98 256.035C262.04 256.425 262.21 257.595 262.22 258.575C262.27 262.735 262.24 266.895 262.24 271.055Z" fill="#2E4889"/>
<path d="M102.145 453.634C102.145 458.512 101.264 462.728 99.5026 466.281C97.741 469.835 95.3244 472.575 92.2528 474.502C89.1813 476.429 85.6731 477.393 81.7282 477.393C77.7834 477.393 74.2752 476.429 71.2036 474.502C68.132 472.575 65.7155 469.835 63.9538 466.281C62.1922 462.728 61.3114 458.512 61.3114 453.634C61.3114 448.755 62.1922 444.539 63.9538 440.986C65.7155 437.433 68.132 434.692 71.2036 432.765C74.2752 430.838 77.7834 429.874 81.7282 429.874C85.6731 429.874 89.1813 430.838 92.2528 432.765C95.3244 434.692 97.741 437.433 99.5026 440.986C101.264 444.539 102.145 448.755 102.145 453.634ZM96.7247 453.634C96.7247 449.629 96.0547 446.248 94.7146 443.493C93.3896 440.738 91.5903 438.652 89.3168 437.237C87.0583 435.822 84.5288 435.114 81.7282 435.114C78.9277 435.114 76.3906 435.822 74.1171 437.237C71.8586 438.652 70.0593 440.738 68.7193 443.493C67.3943 446.248 66.7318 449.629 66.7318 453.634C66.7318 457.639 67.3943 461.019 68.7193 463.774C70.0593 466.53 71.8586 468.615 74.1171 470.03C76.3906 471.446 78.9277 472.153 81.7282 472.153C84.5288 472.153 87.0583 471.446 89.3168 470.03C91.5903 468.615 93.3896 466.53 94.7146 463.774C96.0547 461.019 96.7247 457.639 96.7247 453.634ZM79.289 425.809L84.7998 415.33H91.0333L83.9867 425.809H79.289ZM111.563 476.761V430.507H117.164V471.792H138.665V476.761H111.563ZM147.338 476.761V430.507H175.253V435.475H152.939V451.104H173.807V456.073H152.939V471.792H175.614V476.761H147.338ZM224.375 453.634C224.375 458.512 223.494 462.728 221.733 466.281C219.971 469.835 217.555 472.575 214.483 474.502C211.411 476.429 207.903 477.393 203.958 477.393C200.013 477.393 196.505 476.429 193.434 474.502C190.362 472.575 187.946 469.835 186.184 466.281C184.422 462.728 183.541 458.512 183.541 453.634C183.541 448.755 184.422 444.539 186.184 440.986C187.946 437.433 190.362 434.692 193.434 432.765C196.505 430.838 200.013 429.874 203.958 429.874C207.903 429.874 211.411 430.838 214.483 432.765C217.555 434.692 219.971 437.433 221.733 440.986C223.494 444.539 224.375 448.755 224.375 453.634ZM218.955 453.634C218.955 449.629 218.285 446.248 216.945 443.493C215.62 440.738 213.82 438.652 211.547 437.237C209.288 435.822 206.759 435.114 203.958 435.114C201.158 435.114 198.621 435.822 196.347 437.237C194.089 438.652 192.289 440.738 190.949 443.493C189.624 446.248 188.962 449.629 188.962 453.634C188.962 457.639 189.624 461.019 190.949 463.774C192.289 466.53 194.089 468.615 196.347 470.03C198.621 471.446 201.158 472.153 203.958 472.153C206.759 472.153 209.288 471.446 211.547 470.03C213.82 468.615 215.62 466.53 216.945 463.774C218.285 461.019 218.955 457.639 218.955 453.634ZM259.088 442.07C258.817 439.782 257.718 438.005 255.791 436.74C253.864 435.475 251.5 434.843 248.699 434.843C246.652 434.843 244.86 435.174 243.324 435.837C241.803 436.499 240.614 437.41 239.756 438.569C238.912 439.729 238.491 441.046 238.491 442.522C238.491 443.757 238.784 444.818 239.372 445.706C239.974 446.58 240.742 447.31 241.675 447.897C242.609 448.469 243.587 448.944 244.611 449.32C245.635 449.681 246.576 449.975 247.434 450.201L252.132 451.466C253.337 451.782 254.677 452.218 256.152 452.775C257.643 453.333 259.066 454.093 260.421 455.057C261.791 456.005 262.92 457.225 263.809 458.715C264.697 460.206 265.141 462.035 265.141 464.203C265.141 466.703 264.486 468.961 263.176 470.979C261.881 472.997 259.984 474.6 257.485 475.79C255 476.979 251.982 477.574 248.428 477.574C245.116 477.574 242.247 477.039 239.823 475.97C237.414 474.901 235.517 473.411 234.132 471.498C232.762 469.586 231.986 467.365 231.806 464.836H237.587C237.738 466.582 238.325 468.028 239.349 469.172C240.388 470.301 241.698 471.145 243.279 471.702C244.875 472.244 246.591 472.515 248.428 472.515C250.566 472.515 252.486 472.168 254.187 471.476C255.889 470.768 257.236 469.79 258.23 468.54C259.224 467.275 259.721 465.799 259.721 464.113C259.721 462.577 259.292 461.328 258.433 460.364C257.575 459.4 256.446 458.617 255.046 458.015C253.645 457.413 252.132 456.886 250.506 456.434L244.815 454.808C241.201 453.769 238.34 452.286 236.232 450.359C234.124 448.432 233.07 445.91 233.07 442.793C233.07 440.203 233.771 437.945 235.171 436.017C236.586 434.075 238.483 432.569 240.862 431.5C243.256 430.416 245.929 429.874 248.88 429.874C251.861 429.874 254.511 430.409 256.83 431.478C259.149 432.532 260.985 433.977 262.341 435.814C263.711 437.651 264.433 439.736 264.509 442.07H259.088ZM294.135 476.761H288.263L305.246 430.507H311.028L328.012 476.761H322.14L308.318 437.824H307.957L294.135 476.761ZM296.303 458.693H319.972V463.661H296.303V458.693ZM335.217 476.761V430.507H340.818V471.792H362.319V476.761H335.217ZM376.593 430.507V476.761H370.991V430.507H376.593ZM387.823 430.507H394.508L410.227 468.901H410.769L426.488 430.507H433.174V476.761H427.934V441.618H427.482L413.028 476.761H407.969L393.514 441.618H393.063V476.761H387.823V430.507ZM444.404 476.761V430.507H472.319V435.475H450.005V451.104H470.874V456.073H450.005V471.792H472.68V476.761H444.404ZM519.093 430.507V476.761H513.672L488.467 440.444H488.016V476.761H482.415V430.507H487.835L513.13 466.914H513.582V430.507H519.093ZM527.771 435.475V430.507H562.462V435.475H547.917V476.761H542.316V435.475H527.771ZM567.6 476.761H561.728L578.711 430.507H584.493L601.477 476.761H595.605L581.783 437.824H581.422L567.6 476.761ZM569.768 458.693H593.437V463.661H569.768V458.693ZM608.682 476.761V430.507H624.311C627.924 430.507 630.89 431.124 633.209 432.359C635.528 433.578 637.244 435.257 638.358 437.395C639.473 439.533 640.03 441.965 640.03 444.69C640.03 447.415 639.473 449.832 638.358 451.94C637.244 454.048 635.535 455.704 633.232 456.909C630.928 458.098 627.984 458.693 624.401 458.693H611.753V453.634H624.22C626.69 453.634 628.677 453.272 630.183 452.55C631.703 451.827 632.803 450.803 633.48 449.478C634.173 448.138 634.519 446.542 634.519 444.69C634.519 442.838 634.173 441.219 633.48 439.834C632.788 438.449 631.681 437.38 630.16 436.627C628.639 435.859 626.629 435.475 624.13 435.475H614.283V476.761H608.682ZM630.454 455.983L641.837 476.761H635.332L624.13 455.983H630.454ZM649.363 476.761V430.507H677.278V435.475H654.964V451.104H675.833V456.073H654.964V471.792H677.639V476.761H649.363ZM712.669 442.07C712.398 439.782 711.299 438.005 709.371 436.74C707.444 435.475 705.08 434.843 702.28 434.843C700.232 434.843 698.44 435.174 696.904 435.837C695.384 436.499 694.194 437.41 693.336 438.569C692.493 439.729 692.071 441.046 692.071 442.522C692.071 443.757 692.365 444.818 692.952 445.706C693.554 446.58 694.322 447.31 695.256 447.897C696.189 448.469 697.168 448.944 698.192 449.32C699.216 449.681 700.157 449.975 701.015 450.201L705.713 451.466C706.917 451.782 708.257 452.218 709.733 452.775C711.223 453.333 712.646 454.093 714.001 455.057C715.371 456.005 716.501 457.225 717.389 458.715C718.277 460.206 718.722 462.035 718.722 464.203C718.722 466.703 718.067 468.961 716.757 470.979C715.462 472.997 713.565 474.6 711.065 475.79C708.581 476.979 705.562 477.574 702.009 477.574C698.696 477.574 695.828 477.039 693.404 475.97C690.995 474.901 689.098 473.411 687.712 471.498C686.342 469.586 685.567 467.365 685.386 464.836H691.168C691.318 466.582 691.906 468.028 692.93 469.172C693.968 470.301 695.278 471.145 696.859 471.702C698.455 472.244 700.172 472.515 702.009 472.515C704.147 472.515 706.066 472.168 707.768 471.476C709.469 470.768 710.817 469.79 711.811 468.54C712.804 467.275 713.301 465.799 713.301 464.113C713.301 462.577 712.872 461.328 712.014 460.364C711.156 459.4 710.026 458.617 708.626 458.015C707.226 457.413 705.713 456.886 704.087 456.434L698.395 454.808C694.781 453.769 691.921 452.286 689.813 450.359C687.705 448.432 686.651 445.91 686.651 442.793C686.651 440.203 687.351 437.945 688.751 436.017C690.167 434.075 692.064 432.569 694.443 431.5C696.837 430.416 699.509 429.874 702.46 429.874C705.442 429.874 708.092 430.409 710.41 431.478C712.729 432.532 714.566 433.977 715.921 435.814C717.291 437.651 718.014 439.736 718.089 442.07H712.669Z" fill="#2E4889"/>
</svg>
