<svg width="61" height="61" viewBox="0 0 61 61" fill="none" xmlns="http://www.w3.org/2000/svg">
<g clip-path="url(#clip0_565_823)">
<path d="M12.379 14.8354C8.12648 14.8354 4.66699 18.2949 4.66699 22.5474C4.66699 26.7999 8.12648 30.2594 12.379 30.2594C16.6315 30.2594 20.091 26.7999 20.091 22.5474C20.091 18.2949 16.6315 14.8354 12.379 14.8354ZM12.379 28.056C9.3416 28.056 6.87047 25.5849 6.87047 22.5474C6.87047 19.5099 9.34172 17.0389 12.379 17.0389C15.4164 17.0389 17.8875 19.5099 17.8875 22.5474C17.8876 25.5848 15.4164 28.056 12.379 28.056Z" fill="#037EBA"/>
<path d="M12.9297 6.02173C10.8034 6.02173 9.07373 7.75153 9.07373 9.87767C9.07373 12.0039 10.8035 13.7336 12.9297 13.7336C15.0559 13.7336 16.7856 12.0039 16.7856 9.87767C16.7856 7.75153 15.0559 6.02173 12.9297 6.02173ZM12.9297 11.5304C12.0184 11.5304 11.2771 10.789 11.2771 9.87778C11.2771 8.96653 12.0184 8.2252 12.9297 8.2252C13.8409 8.2252 14.5822 8.96653 14.5822 9.87778C14.5822 10.789 13.8409 11.5304 12.9297 11.5304Z" fill="#037EBA"/>
<path d="M28.354 0.513184C26.2277 0.513184 24.498 2.24299 24.498 4.36912C24.498 6.49537 26.2279 8.22506 28.354 8.22506C30.4802 8.22506 32.2099 6.49537 32.2099 4.36912C32.2099 2.24299 30.4802 0.513184 28.354 0.513184ZM28.354 6.0217C27.4427 6.0217 26.7014 5.28037 26.7014 4.36912C26.7014 3.45787 27.4427 2.71654 28.354 2.71654C29.2652 2.71654 30.0066 3.45787 30.0066 4.36912C30.0066 5.28049 29.2652 6.0217 28.354 6.0217Z" fill="#037EBA"/>
<path d="M22.2945 8.2251C19.8646 8.2251 17.8877 10.2021 17.8877 12.6319C17.8877 15.0618 19.8646 17.0388 22.2945 17.0388C24.7244 17.0388 26.7014 15.0618 26.7014 12.6319C26.7014 10.2021 24.7244 8.2251 22.2945 8.2251ZM22.2945 14.8354C21.0796 14.8354 20.0911 13.8469 20.0911 12.6319C20.0911 11.4171 21.0795 10.4285 22.2945 10.4285C23.5095 10.4285 24.498 11.4169 24.498 12.6319C24.4979 13.8469 23.5094 14.8354 22.2945 14.8354Z" fill="#037EBA"/>
<path d="M26.7014 19.2423C23.664 19.2423 21.1929 21.7133 21.1929 24.7508C21.1929 27.7883 23.6641 30.2593 26.7014 30.2593C29.7388 30.2593 32.2099 27.7883 32.2099 24.7508C32.2099 21.7133 29.7388 19.2423 26.7014 19.2423ZM26.7014 28.056C24.879 28.056 23.3962 26.5734 23.3962 24.7508C23.3962 22.9282 24.8789 21.4457 26.7014 21.4457C28.5238 21.4457 30.0065 22.9282 30.0065 24.7508C30.0065 26.5734 28.5238 28.056 26.7014 28.056Z" fill="#037EBA"/>
<path d="M22.2946 30.2593C19.2573 30.2593 16.7861 32.7303 16.7861 35.7678C16.7861 38.8053 19.2574 41.2763 22.2946 41.2763C25.332 41.2763 27.8032 38.8053 27.8032 35.7678C27.8032 32.7304 25.332 30.2593 22.2946 30.2593ZM22.2946 39.0731C20.4723 39.0731 18.9895 37.5905 18.9895 35.7679C18.9895 33.9454 20.4721 32.4628 22.2946 32.4628C24.117 32.4628 25.5998 33.9453 25.5998 35.7679C25.5998 37.5904 24.117 39.0731 22.2946 39.0731Z" fill="#037EBA"/>
<path d="M55.0403 30.5991L42.578 18.1368C40.8593 16.418 38.0629 16.4172 36.3447 18.136L34.0617 20.4188C33.6314 20.8489 33.6314 21.5466 34.0616 21.9767C34.4919 22.407 35.1896 22.4072 35.6196 21.9767L37.9027 19.6939C38.7619 18.835 40.1605 18.8356 41.0198 19.6947L53.4821 32.157C54.3419 33.0169 54.3446 34.4131 53.4878 35.2698L31.0709 57.6771C30.6569 58.0912 30.1062 58.3097 29.52 58.3097C29.5191 58.3097 29.5183 58.3097 29.5173 58.3097C28.9291 58.3097 28.3755 58.0884 27.9585 57.6714L15.4963 45.2138C14.6365 44.3542 14.6332 42.9609 15.4889 42.1053L15.8653 41.73C16.2954 41.2997 16.2953 40.6025 15.8651 40.1724C15.4348 39.7425 14.7373 39.7425 14.307 40.173L13.9307 40.5495C12.2161 42.2642 12.2195 45.0577 13.9382 46.7765L26.4004 59.2294C27.233 60.0619 28.339 60.5132 29.515 60.5132C29.5167 60.5132 29.5184 60.5132 29.5201 60.5132C30.6951 60.5132 31.799 60.0653 32.6292 59.235L55.046 36.8232C55.877 35.9917 56.334 34.8884 56.3328 33.7114C56.3315 32.5349 55.8724 31.4314 55.0403 30.5991Z" fill="#037EBA"/>
<path d="M41.0233 40.1315H32.2096C31.6012 40.1315 31.1079 40.6247 31.1079 41.2331C31.1079 41.8416 31.6012 42.3348 32.2096 42.3348H41.0233C41.6317 42.3348 42.1249 41.8416 42.1249 41.2331C42.1249 40.6248 41.6316 40.1315 41.0233 40.1315Z" fill="#037EBA"/>
<path d="M38.8201 44.5384H23.3961C22.7877 44.5384 22.2944 45.0316 22.2944 45.6401C22.2944 46.2485 22.7877 46.7418 23.3961 46.7418H38.8201C39.4285 46.7418 39.9218 46.2485 39.9218 45.6401C39.9218 45.0316 39.4285 44.5384 38.8201 44.5384Z" fill="#037EBA"/>
<path d="M31.1081 50.0469H26.7013C26.0929 50.0469 25.5996 50.5402 25.5996 51.1486C25.5996 51.7571 26.0929 52.2503 26.7013 52.2503H31.1081C31.7166 52.2503 32.2098 51.7571 32.2098 51.1486C32.2098 50.5402 31.7166 50.0469 31.1081 50.0469Z" fill="#037EBA"/>
</g>
<defs>
<clipPath id="clip0_565_823">
<rect width="60" height="60" fill="white" transform="translate(0.5 0.513184)"/>
</clipPath>
</defs>
</svg>
