<svg width="81" height="81" viewBox="0 0 81 81" fill="none" xmlns="http://www.w3.org/2000/svg">
<path d="M75.9197 19.6436H73.3111V15.2958C73.3111 13.8175 72.1806 12.6871 70.7024 12.6871H68.0937V7.46971H72.4415C72.9632 7.46971 73.3111 7.12188 73.3111 6.60014V1.38275C73.3111 0.86101 72.9632 0.513184 72.4415 0.513184H35.9198C35.398 0.513184 35.0502 0.86101 35.0502 1.38275V6.60014C35.0502 7.12188 35.398 7.46971 35.9198 7.46971H36.7893V10.0784C36.7893 10.6001 37.1371 10.948 37.6589 10.948H42.8763C43.398 10.948 43.7458 10.6001 43.7458 10.0784V7.46971H59.398V12.6871H56.7893C55.3111 12.6871 54.1806 13.8175 54.1806 15.2958V19.6436H51.5719C49.1371 19.6436 47.2241 21.5567 47.2241 23.9914V37.9045C46.5284 37.3827 45.5719 37.0349 44.6154 37.0349V34.4262C44.6154 33.9045 44.2676 33.5567 43.7458 33.5567H42.0067V27.4697C42.0067 25.0349 40.0937 23.1219 37.6589 23.1219H32.4415C30.0067 23.1219 28.0937 25.0349 28.0937 27.4697V33.5567H26.3545C25.8328 33.5567 25.485 33.9045 25.485 34.4262V37.0349C23.0502 37.0349 21.1371 38.948 21.1371 41.3827V63.1219H8.09366C5.2241 63.1219 2.87627 65.4697 2.87627 68.3393C2.87627 69.6436 3.39801 70.861 4.18062 71.8175H1.13714C0.615404 71.8175 0.267578 72.1654 0.267578 72.6871C0.267578 75.1219 2.18062 77.0349 4.6154 77.0349V79.6436C4.6154 80.1654 4.96323 80.5132 5.48497 80.5132H31.5719H44.6154C46.0067 80.5132 47.3111 79.8175 48.0937 78.774C48.8763 79.8175 50.1806 80.5132 51.5719 80.5132H75.9197C78.3545 80.5132 80.2676 78.6001 80.2676 76.1654V23.9914C80.2676 21.5567 78.3545 19.6436 75.9197 19.6436ZM36.7893 2.25231H71.5719V5.73057H67.2241H60.2676H42.8763H37.6589H36.7893V2.25231ZM42.0067 9.20884H38.5284V7.46971H42.0067V9.20884ZM61.1371 7.46971H66.3545V12.6871H61.1371V7.46971ZM55.9198 15.2958C55.9198 14.7741 56.2676 14.4262 56.7893 14.4262H60.2676H67.2241H70.7024C71.2241 14.4262 71.5719 14.7741 71.5719 15.2958V19.6436H55.9198V15.2958ZM32.4415 24.861H37.6589C39.1371 24.861 40.2676 25.9914 40.2676 27.4697V29.2088H39.3111C38.8763 27.2088 37.1371 25.7306 35.0502 25.7306C32.9632 25.7306 31.2241 27.2088 30.7893 29.2088H29.8328V27.4697C29.8328 25.9914 30.9632 24.861 32.4415 24.861ZM37.485 29.2088H32.6154C32.9632 28.1654 33.9198 27.4697 35.0502 27.4697C36.1806 27.4697 37.1371 28.1654 37.485 29.2088ZM29.8328 30.948H40.2676V33.5567H29.8328V30.948ZM27.2241 35.2958H28.9632H41.1371H42.8763V37.0349H27.2241V35.2958ZM4.6154 68.3393C4.6154 66.4262 6.18062 64.861 8.09366 64.861H28.9632C30.8763 64.861 32.4415 66.4262 32.4415 68.3393C32.4415 70.2523 30.8763 71.8175 28.9632 71.8175H26.3545H8.09366C6.18062 71.8175 4.6154 70.2523 4.6154 68.3393ZM35.9198 71.8175H32.8763C33.7458 70.861 34.1806 69.6436 34.1806 68.3393C34.1806 65.4697 31.8328 63.1219 28.9632 63.1219H27.2241V53.5567C27.2241 49.2088 30.7024 45.7306 35.0502 45.7306C37.1371 45.7306 39.1371 46.5132 40.6154 47.9914C42.0937 49.4697 42.8763 51.4697 42.8763 53.5567V71.8175H35.9198ZM2.18062 73.5567H8.09366H26.3545H28.9632H34.8763C34.5284 74.6001 33.5719 75.2958 32.4415 75.2958H31.5719H5.48497H4.6154C3.48497 75.2958 2.52845 74.6001 2.18062 73.5567ZM6.35453 77.0349H30.7024V78.774H6.35453V77.0349ZM44.6154 78.774H32.4415V77.0349C34.5284 77.0349 36.2676 75.5567 36.7024 73.5567H43.7458C44.2676 73.5567 44.6154 73.2088 44.6154 72.6871V53.5567C44.6154 51.0349 43.6589 48.6001 41.8328 46.7741C40.0067 44.948 37.5719 43.9914 35.0502 43.9914C29.7458 43.9914 25.485 48.2523 25.485 53.5567V63.1219H22.8763V41.3827C22.8763 39.9045 24.0067 38.7741 25.485 38.7741H26.3545H43.7458H44.6154C46.0937 38.7741 47.2241 39.9045 47.2241 41.3827V76.1654C47.2241 77.6436 46.0937 78.774 44.6154 78.774ZM78.5284 76.1654C78.5284 77.6436 77.398 78.774 75.9197 78.774H51.5719C50.0937 78.774 48.9632 77.6436 48.9632 76.1654V41.3827V23.9914C48.9632 22.5132 50.0937 21.3827 51.5719 21.3827H55.0502H72.4415H75.9197C77.398 21.3827 78.5284 22.5132 78.5284 23.9914V76.1654Z" fill="#037EBA"/>
<path d="M63.7458 28.3393C57.4849 28.3393 52.4414 33.3828 52.4414 39.6436V70.948C52.4414 71.4697 52.7892 71.8176 53.311 71.8176H74.1805C74.7023 71.8176 75.0501 71.4697 75.0501 70.948V39.6436C75.0501 33.3828 70.0066 28.3393 63.7458 28.3393ZM73.311 70.0784H54.1805V39.6436C54.1805 34.3393 58.4414 30.0784 63.7458 30.0784C69.0501 30.0784 73.311 34.3393 73.311 39.6436V70.0784Z" fill="#037EBA"/>
</svg>
