<svg width="53" height="81" viewBox="0 0 53 81" fill="none" xmlns="http://www.w3.org/2000/svg">
<g clip-path="url(#clip0_565_902)">
<path d="M38.444 25.6621V18.9443C38.444 17.9294 37.6214 17.1067 36.6065 17.1067H36.5038C37.5002 13.9157 40.4769 11.625 43.9716 11.625C44.9864 11.625 45.8092 10.8023 45.8092 9.78744V2.43758C45.8092 1.4226 44.9866 0.600037 43.9716 0.600037H12.7957C12.0544 0.600037 11.4174 1.0398 11.1268 1.67182H5.44564C4.43081 1.67182 3.60809 2.49438 3.60809 3.50936V10.8594C3.60809 11.8742 4.43081 12.6969 5.44564 12.6969H11.0341C11.2588 13.458 11.9619 14.0139 12.7955 14.0139H14.6014C14.6719 15.3151 14.6438 17.3269 14.1074 19.5229C12.9083 24.4318 9.79051 27.7955 4.84077 29.5207C3.88244 29.8545 3.37635 30.9023 3.71031 31.8606C3.97451 32.6187 4.6855 33.0939 5.44533 33.0939C5.64601 33.0939 5.85013 33.0606 6.05019 32.991C13.7747 30.2989 16.6366 24.6555 17.6775 20.3953C18.2794 17.931 18.3478 15.6592 18.2811 14.0763C20.2942 14.3508 22.0787 15.524 23.1486 17.2077C22.4263 17.4552 21.9064 18.1385 21.9064 18.9447V44.6696H7.82672C3.93862 44.6696 0.775391 47.8328 0.775391 51.7209V73.4491C0.775391 77.3372 3.93862 80.5005 7.82672 80.5005H45.1737C49.0618 80.5005 52.225 77.3372 52.225 73.4491V42.2576C52.225 34.0077 46.2766 27.1221 38.444 25.6621ZM10.9581 9.02184H7.28318V5.34675H10.9581V9.02184ZM17.3741 10.3388H14.6332V4.27497H42.1342V8.09581C37.4375 8.8494 33.6719 12.4457 32.7107 17.1069H27.1898C25.6588 13.1097 21.7434 10.3388 17.3741 10.3388ZM34.7689 20.7816V25.3754H25.5815V20.7816H34.7689ZM48.5501 69.322H38.1453C37.1305 69.322 36.3078 70.1447 36.3078 71.1595C36.3078 72.1743 37.1303 72.9971 38.1453 72.9971H48.5501V73.4487C48.5501 75.3104 47.0354 76.8251 45.1737 76.8251H7.82672C5.96499 76.8251 4.45032 75.3104 4.45032 73.4487V72.9971H14.2657C15.2805 72.9971 16.1032 72.1743 16.1032 71.1595C16.1032 70.1447 15.2805 69.322 14.2657 69.322H4.45032V51.7204C4.45032 49.8587 5.96499 48.344 7.82672 48.344H23.744C24.7588 48.344 25.5815 47.5213 25.5815 46.5065V29.0504H35.3432C42.6255 29.0504 48.5501 34.975 48.5501 42.2573V69.322Z" fill="#037EBA"/>
<path d="M35.3429 32.7253C34.3281 32.7253 33.5054 33.5478 33.5054 34.5628C33.5054 35.5778 34.3279 36.4004 35.3429 36.4004C38.5725 36.4004 41.2 39.0279 41.2 42.2574C41.2 43.2722 42.0227 44.095 43.0375 44.095C44.0523 44.095 44.875 43.2724 44.875 42.2574C44.8749 37.0013 40.5988 32.7253 35.3429 32.7253Z" fill="#037EBA"/>
<path d="M21.5542 69.322H21.3092C20.2944 69.322 19.4717 70.1447 19.4717 71.1595C19.4717 72.1743 20.2942 72.997 21.3092 72.997H21.5542C22.5691 72.997 23.3918 72.1743 23.3918 71.1595C23.3918 70.1447 22.5691 69.322 21.5542 69.322Z" fill="#037EBA"/>
</g>
<defs>
<clipPath id="clip0_565_902">
<rect width="51.5356" height="80" fill="white" transform="translate(0.732422 0.513184)"/>
</clipPath>
</defs>
</svg>
