<svg width="70" height="96" viewBox="0 0 70 96" fill="none" xmlns="http://www.w3.org/2000/svg">
<path d="M0 62.2242C0.489073 61.1565 1.16035 60.2934 2.39742 60.0441C3.90619 59.7404 5.25194 60.498 5.89765 61.9493C6.92054 64.2508 7.90189 66.5747 9.04945 68.8155C11.1144 72.8431 13.5854 76.6119 16.5773 80.0258C17.9487 81.5889 19.3168 83.1488 21.0142 84.3635C24.6103 86.9431 28.5836 88.6085 32.9821 89.1775C40.9639 90.21 48.0506 88.129 54.1624 82.8803C59.018 78.7088 61.9972 73.4153 63.0361 67.0893C63.9439 61.5721 63.295 56.2082 60.8241 51.1705C59.603 48.6804 58.1198 46.3149 56.7357 43.9047C53.3537 38.0166 49.9654 32.1318 46.5738 26.2469C44.5312 22.7051 42.4694 19.1697 40.4268 15.628C39.2889 13.6557 38.1765 11.6706 37.0513 9.69196C36.9554 9.52254 36.8467 9.35952 36.6869 9.10379C36.5238 9.33394 36.396 9.47779 36.3033 9.64401C35.4626 11.1592 34.6507 12.6903 33.7748 14.1863C33.4264 14.7809 33.5095 15.2444 33.8355 15.8006C35.4562 18.5656 37.0513 21.3434 38.6464 24.1212C41.7023 29.4307 44.7486 34.7434 47.8045 40.0528C50.0772 44.0006 52.3724 47.9324 54.6355 51.8865C56.6813 55.4571 57.6595 59.3217 57.4261 63.4261C57.1544 68.2017 55.4954 72.4723 52.3564 76.11C48.7123 80.3327 44.0677 82.6917 38.5569 83.2639C33.7077 83.7658 29.2037 82.6022 25.1089 79.9714C22.1074 78.0439 19.8218 75.4227 18.0733 72.3061C16.5869 69.653 15.0206 67.0414 13.5086 64.401C11.3062 60.5556 9.11658 56.7005 6.92374 52.8487C6.33238 51.8098 6.23009 50.7645 6.84383 49.6905C9.07502 45.7907 11.3382 41.9068 13.5054 37.9751C14.4868 36.1946 17.8847 35.9229 19.0579 37.9719C21.5608 42.3448 24.086 46.7049 26.6081 51.065C29.0503 55.2844 31.4957 59.5039 33.9506 63.717C34.852 65.2673 36.5366 65.7532 37.9815 64.9061C39.4775 64.027 39.8738 62.3488 38.9596 60.7665C36.2394 56.0548 33.5159 51.3463 30.7988 46.6314C28.3726 42.4247 25.9528 38.2148 23.5394 34.0018C22.5773 32.3236 21.6375 30.6326 20.7041 28.9416C19.9913 27.6534 20.1479 26.2949 21.1101 25.2464C22.0083 24.2651 23.402 23.9326 24.6327 24.6422C25.288 25.0194 25.8505 25.6971 26.2469 26.362C27.8548 29.0631 29.3763 31.8153 30.9363 34.542C33.7173 39.4039 36.4983 44.2691 39.2889 49.1247C40.9255 51.9728 42.6165 54.789 44.2212 57.6531C46.0144 60.8528 46.0624 64.1197 44.1093 67.2459C42.2425 70.2315 39.4007 71.6316 35.9229 71.3919C32.7359 71.1713 30.2778 69.5986 28.6571 66.7633C26.2565 62.5662 23.8079 58.3947 21.385 54.2072C19.8186 51.5029 18.2619 48.7986 16.6988 46.0943C16.5582 45.8514 16.4079 45.6181 16.1682 45.2281C15.043 47.1876 13.9817 49.0384 12.9045 50.9115C13.189 51.439 13.4415 51.9408 13.7228 52.4267C16.5326 57.3206 19.3392 62.2114 22.1617 67.0989C22.9577 68.4766 23.6929 69.9055 24.6263 71.1841C27.0972 74.5725 30.4664 76.5287 34.6155 77.1137C37.6139 77.5357 40.4972 77.0722 43.1727 75.6912C46.9574 73.735 49.5434 70.6982 50.7581 66.5683C52.0975 62.0164 51.1321 57.8417 48.7571 53.8332C45.5509 48.4246 42.4694 42.9457 39.3368 37.4924C36.6965 32.899 34.0625 28.2991 31.4221 23.7057C30.2586 21.679 29.0887 19.6556 27.9155 17.6354C27.7941 17.4276 27.6246 17.2518 27.4872 17.0536C26.7232 15.9348 26.7584 14.7937 27.3977 13.6333C29.6097 9.62803 31.8249 5.62594 34.0177 1.61426C34.4621 0.799139 35.1589 0.338835 35.9772 0C36.4599 0 36.9426 0 37.4253 0C38.4066 0.332442 39.0843 0.97495 39.6021 1.88277C42.6964 7.30733 45.8226 12.7127 48.9425 18.1213C53.1907 25.4861 57.4485 32.8446 61.6871 40.2127C63.1352 42.7252 64.6024 45.2313 65.9513 47.7981C67.8181 51.3495 68.9018 55.1502 69.3173 59.1491C70.0365 66.1016 68.7164 72.6449 65.328 78.7344C62.352 84.0854 58.1677 88.2761 52.8423 91.2904C48.6867 93.6431 44.2339 95.0496 39.4647 95.4108C39.308 95.4236 39.1546 95.4779 38.998 95.5131C37.4285 95.5131 35.859 95.5131 34.2895 95.5131C33.8132 95.4556 33.3369 95.398 32.8638 95.3373C29.2069 94.8706 25.7099 93.8701 22.3855 92.2398C19.3999 90.7758 16.6253 89.0081 14.295 86.6235C12.9045 85.2042 11.6195 83.673 10.3632 82.1291C6.6808 77.5996 3.81349 72.5714 1.45124 67.2396C0.952574 66.1367 0.479483 65.0243 0 63.9183C0 63.3525 0 62.7868 0 62.2242Z" fill="#29B5E9"/>
</svg>
