<svg width="241" height="81" viewBox="0 0 241 81" fill="none" xmlns="http://www.w3.org/2000/svg">
<g clip-path="url(#clip0_21_201)">
<path d="M0 52.4838C0.412515 51.5833 0.978712 50.8553 2.02213 50.645C3.29473 50.3889 4.42982 51.0278 4.97445 52.2519C5.83722 54.1932 6.66495 56.1533 7.63288 58.0433C9.37461 61.4405 11.4588 64.6193 13.9824 67.4988C15.139 68.8172 16.293 70.133 17.7247 71.1575C20.7579 73.3333 24.1092 74.738 27.8192 75.2179C34.5515 76.0888 40.5289 74.3336 45.684 69.9065C49.7795 66.388 52.2924 61.9231 53.1686 56.5874C53.9343 51.9338 53.387 47.4096 51.3029 43.1604C50.2729 41.0601 49.0219 39.0649 47.8544 37.032C45.0019 32.0656 42.1439 27.102 39.2833 22.1383C37.5604 19.1509 35.8214 16.169 34.0986 13.1816C33.1387 11.5181 32.2004 9.84374 31.2514 8.17481C31.1705 8.03191 31.0788 7.89441 30.944 7.67871C30.8065 7.87284 30.6987 7.99416 30.6205 8.13437C29.9114 9.41235 29.2266 10.7038 28.4878 11.9656C28.1939 12.4671 28.264 12.8581 28.539 13.3272C29.906 15.6594 31.2514 18.0024 32.5968 20.3454C35.1743 24.8237 37.7438 29.3047 40.3213 33.7831C42.2383 37.1129 44.1742 40.4292 46.0831 43.7643C47.8086 46.776 48.6336 50.0357 48.4368 53.4975C48.2076 57.5256 46.8083 61.1277 44.1607 64.196C41.087 67.7576 37.1695 69.7474 32.5213 70.23C28.4312 70.6533 24.6323 69.6719 21.1785 67.453C18.6468 65.8272 16.719 63.6163 15.2442 60.9875C13.9905 58.7497 12.6693 56.5469 11.394 54.3199C9.53638 51.0764 7.6895 47.8248 5.83992 44.5759C5.34113 43.6996 5.25485 42.818 5.77251 41.9121C7.65445 38.6227 9.56334 35.3469 11.3913 32.0306C12.2191 30.5288 15.0851 30.2996 16.0746 32.0279C18.1857 35.7163 20.3157 39.3938 22.443 43.0714C24.5029 46.6304 26.5654 50.1893 28.6361 53.7429C29.3964 55.0505 30.8173 55.4604 32.036 54.7459C33.2978 54.0044 33.6321 52.5889 32.861 51.2543C30.5666 47.2802 28.2694 43.3087 25.9777 39.3318C23.9313 35.7837 21.8903 32.2328 19.8546 28.6792C19.0431 27.2637 18.2504 25.8375 17.4631 24.4112C16.8619 23.3246 16.994 22.1788 17.8056 21.2944C18.5632 20.4667 19.7387 20.1863 20.7767 20.7848C21.3295 21.103 21.804 21.6746 22.1383 22.2354C23.4945 24.5136 24.7779 26.8351 26.0936 29.1349C28.4393 33.2358 30.785 37.3394 33.1387 41.4348C34.5192 43.8371 35.9454 46.2125 37.2989 48.6283C38.8115 51.3271 38.8519 54.0826 37.2045 56.7195C35.63 59.2377 33.2331 60.4186 30.2996 60.2164C27.6115 60.0304 25.5382 58.7039 24.1712 56.3124C22.1464 52.7723 20.0811 49.2538 18.0374 45.7218C16.7163 43.4408 15.4033 41.1598 14.0848 38.8789C13.9662 38.674 13.8395 38.4771 13.6373 38.1482C12.6882 39.801 11.7931 41.3621 10.8845 42.942C11.1244 43.3869 11.3374 43.8102 11.5747 44.22C13.9446 48.3478 16.3119 52.473 18.6926 56.5955C19.3639 57.7575 19.9841 58.9627 20.7713 60.0412C22.8555 62.8991 25.6973 64.5492 29.1969 65.0426C31.7259 65.3985 34.1579 65.0075 36.4146 63.8428C39.6068 62.1927 41.788 59.6313 42.8126 56.1479C43.9423 52.3085 43.128 48.7873 41.1248 45.4063C38.4205 40.8444 35.8214 36.2231 33.1792 31.6235C30.9521 27.7491 28.7305 23.8693 26.5034 19.9949C25.522 18.2855 24.5352 16.5788 23.5457 14.8748C23.4433 14.6996 23.3004 14.5513 23.1844 14.3841C22.54 13.4404 22.5697 12.4779 23.1089 11.4992C24.9747 8.12089 26.8431 4.74527 28.6927 1.36157C29.0675 0.674044 29.6553 0.285795 30.3455 0C30.7526 0 31.1597 0 31.5668 0C32.3946 0.280402 32.9662 0.822334 33.4029 1.58805C36.0128 6.16346 38.6497 10.7227 41.2812 15.2846C44.8644 21.4966 48.4557 27.7032 52.0308 33.9179C53.2522 36.0371 54.4897 38.1509 55.6275 40.3159C57.2021 43.3114 58.1161 46.5171 58.4666 49.8901C59.0732 55.7542 57.9597 61.2733 55.1018 66.4095C52.5916 70.9229 49.0623 74.4576 44.5705 77.0001C41.0655 78.9845 37.3097 80.1708 33.287 80.4755C33.1549 80.4863 33.0255 80.5321 32.8934 80.5618C31.5695 80.5618 30.2457 80.5618 28.9219 80.5618C28.5202 80.5132 28.1184 80.4647 27.7194 80.4135C24.635 80.0198 21.6854 79.1759 18.8813 77.8009C16.3631 76.566 14.0228 75.0751 12.0573 73.0637C10.8845 71.8666 9.8006 70.5751 8.74101 69.2729C5.63501 65.4524 3.21654 61.2113 1.22406 56.7141C0.803461 55.7839 0.404427 54.8456 0 53.9128C0 53.4355 0 52.9583 0 52.4838Z" fill="#29B5E9"/>
<path d="M90.0093 40.661C90.0093 36.978 90.0093 33.349 90.0093 29.666C92.7702 29.666 95.4367 29.666 98.1707 29.666C98.1707 39.6446 98.1707 49.5962 98.1707 59.5909C95.4502 59.5909 92.7945 59.5909 90.0309 59.5909C90.0309 55.8189 90.0309 52.0739 90.0309 48.2723C86.356 48.2723 82.7917 48.2723 79.1222 48.2723C79.1222 52.0281 79.1222 55.7731 79.1222 59.5774C76.3397 59.5774 73.657 59.5774 70.9204 59.5774C70.9204 49.6042 70.9204 39.6661 70.9204 29.6687C73.6382 29.6687 76.3074 29.6687 79.079 29.6687C79.079 33.3247 79.079 36.9673 79.079 40.661C82.7458 40.661 86.3129 40.661 90.0093 40.661Z" fill="#037EBA"/>
<path d="M208.768 29.6714C208.768 32.098 208.768 34.4679 208.768 36.9376C203.742 36.9376 198.751 36.9376 193.696 36.9376C193.696 38.2614 193.696 39.4882 193.696 40.812C198.36 40.812 203.011 40.812 207.722 40.812C207.722 43.2736 207.722 45.6382 207.722 48.0863C203.038 48.0863 198.401 48.0863 193.699 48.0863C193.699 49.4964 193.699 50.8256 193.699 52.2708C198.708 52.2708 203.712 52.2708 208.765 52.2708C208.765 54.7593 208.765 57.1293 208.765 59.5639C201.024 59.5639 193.305 59.5639 185.529 59.5639C185.529 49.6015 185.529 39.6634 185.529 29.6687C193.284 29.6714 201.003 29.6714 208.768 29.6714Z" fill="#28B4E8"/>
<path d="M140.778 33.1523C138.708 35.1879 136.826 37.0375 134.901 38.9275C134.704 38.7819 134.523 38.6687 134.364 38.5285C131.463 36.021 126.691 36.1639 124.113 38.8628C122.921 40.1111 122.28 41.6507 122.113 43.3492C121.94 45.1045 122.01 46.8597 122.77 48.5043C123.922 50.9902 125.847 52.4273 128.586 52.678C130.015 52.8101 131.431 52.705 132.779 52.1442C134.334 51.4971 135.327 50.3323 135.877 48.7578C135.893 48.7092 135.909 48.6607 135.914 48.6095C135.917 48.5771 135.904 48.5448 135.887 48.4504C133.639 48.4504 131.377 48.4504 129.053 48.4504C129.053 46.431 129.053 44.4709 129.053 42.4433C133.997 42.4433 138.918 42.4433 143.892 42.4433C143.944 42.721 144.024 42.9987 144.041 43.2791C144.186 45.9295 144.095 48.561 143.089 51.0657C140.927 56.4527 136.871 59.3753 131.193 60.0494C127.81 60.4511 124.553 59.8633 121.538 58.2456C117.044 55.8325 114.509 52.0201 113.814 46.981C113.415 44.1042 113.66 41.2678 114.752 38.5608C116.618 33.9342 120.039 31.0223 124.803 29.7174C128.252 28.7737 131.719 28.8168 135.141 29.8872C136.942 30.4507 138.546 31.3998 139.986 32.6265C140.201 32.8099 140.463 32.9447 140.778 33.1523Z" fill="#037EBA"/>
<path d="M240.488 36.6869C237.984 38.0701 235.616 39.3777 233.214 40.7043C233.063 40.5074 232.947 40.3699 232.847 40.2189C231.405 38.0674 229.396 36.997 226.805 36.9539C224.395 36.9134 222.432 37.787 220.981 39.7174C218.746 42.6967 218.922 47.9893 221.847 50.5183C223.079 51.5833 224.481 52.1657 226.088 52.2735C227.808 52.3895 229.469 52.1253 230.879 51.0872C231.674 50.5022 232.324 49.7176 233.036 49.0193C233.155 48.9033 233.249 48.7658 233.408 48.5717C235.635 50.1328 237.833 51.6723 240.103 53.2603C239.666 53.8238 239.305 54.3334 238.898 54.7999C236.177 57.9086 232.753 59.6395 228.652 60.052C225.427 60.3756 222.319 59.963 219.377 58.5745C216.7 57.31 214.527 55.4416 213.101 52.8182C210.315 47.6927 210.229 42.4244 212.693 37.1884C214.381 33.6025 217.301 31.2946 221.03 30.0031C223.093 29.2886 225.22 29.0001 227.388 29.0945C231.774 29.2859 235.592 30.8147 238.585 34.1202C239.267 34.8832 239.812 35.7702 240.488 36.6869Z" fill="#28B4E8"/>
<path d="M166.354 37.1748C163.48 37.1748 160.741 37.1748 157.942 37.1748C157.942 34.6485 157.942 32.1977 157.942 29.6794C166.26 29.6794 174.567 29.6794 182.917 29.6794C182.917 32.1707 182.917 34.6108 182.917 37.1613C180.124 37.1613 177.36 37.1613 174.499 37.1613C174.499 44.6891 174.499 52.1089 174.499 59.5774C171.752 59.5774 169.102 59.5774 166.354 59.5774C166.354 52.1251 166.354 44.7052 166.354 37.1748Z" fill="#28B4E8"/>
<path d="M147.252 29.658C149.961 29.658 152.612 29.658 155.316 29.658C155.316 39.6419 155.316 49.58 155.316 59.5774C152.636 59.5774 149.972 59.5774 147.252 59.5774C147.252 49.6097 147.252 39.6743 147.252 29.658Z" fill="#037EBA"/>
<path d="M110.497 59.5803C107.801 59.5803 105.137 59.5803 102.433 59.5803C102.433 49.6017 102.433 39.6798 102.433 29.6824C105.11 29.6824 107.769 29.6824 110.497 29.6824C110.497 39.634 110.497 49.5667 110.497 59.5803Z" fill="#037EBA"/>
</g>
<defs>
<clipPath id="clip0_21_201">
<rect width="240.488" height="80.5618" fill="white"/>
</clipPath>
</defs>
</svg>
