<svg width="61" height="49" viewBox="0 0 61 49" fill="none" xmlns="http://www.w3.org/2000/svg">
<path d="M55.5 0.138184H5.5C2.743 0.138184 0.5 2.38118 0.5 5.13818V18.8882C0.5 26.9014 3.6205 34.4351 9.28675 40.1014C14.953 45.7678 22.4867 48.8882 30.5 48.8882C38.5132 48.8882 46.047 45.7677 51.7132 40.1014C57.3795 34.4352 60.5 26.9014 60.5 18.8882V5.13818C60.5 2.38118 58.257 0.138184 55.5 0.138184ZM3 10.1382H10.5C11.8785 10.1382 13 11.2597 13 12.6382C13 14.0167 11.8785 15.1382 10.5 15.1382H4.25C3.56075 15.1382 3 14.5774 3 13.8882V10.1382ZM22.0096 45.0473C13.7502 42.3601 7.194 35.8614 4.42675 27.6382H8.25962C15.8414 27.6382 22.0096 33.8064 22.0096 41.3882V45.0473ZM39.25 44.9613V41.3882C39.25 33.8064 45.4183 27.6382 53 27.6382H56.5732C53.8351 35.7748 47.3867 42.2233 39.25 44.9613ZM58 18.8882C58 21.0372 57.7522 23.1298 57.2837 25.1382H53C44.0396 25.1382 36.75 32.4279 36.75 41.3882V45.6718C34.7416 46.1403 32.649 46.3882 30.5 46.3882C28.4435 46.3882 26.4384 46.1612 24.5096 45.7311V41.3882C24.5096 32.4279 17.22 25.1382 8.25962 25.1382H3.71625C3.24775 23.1298 3 21.0372 3 18.8882V17.4241C3.39112 17.5627 3.81187 17.6382 4.25 17.6382H10.5C13.257 17.6382 15.5 15.3952 15.5 12.6382C15.5 11.7282 15.2556 10.8741 14.829 10.1382H46.171C45.7444 10.8741 45.5 11.7282 45.5 12.6382C45.5 15.3952 47.743 17.6382 50.5 17.6382H56.75C57.1881 17.6382 57.6089 17.5627 58 17.4241V18.8882ZM58 13.8882C58 14.5774 57.4392 15.1382 56.75 15.1382H50.5C49.1215 15.1382 48 14.0167 48 12.6382C48 11.2597 49.1215 10.1382 50.5 10.1382H58V13.8882ZM58 7.63818H3V5.13818C3 3.75968 4.1215 2.63818 5.5 2.63818H55.5C56.8785 2.63818 58 3.75968 58 5.13818V7.63818Z" fill="#037EBA"/>
</svg>
