<svg width="81" height="81" viewBox="0 0 81 81" fill="none" xmlns="http://www.w3.org/2000/svg">
<path d="M43.0328 7.77984C42.1643 7.38367 41.2208 7.17865 40.2662 7.17865C39.3115 7.17865 38.368 7.38367 37.4995 7.77984L8.93282 20.7798C8.34132 21.0407 7.83842 21.4678 7.48536 22.0094C7.13231 22.5509 6.94434 23.1834 6.94434 23.8298C6.94434 24.4763 7.13231 25.1088 7.48536 25.6503C7.83842 26.1918 8.34132 26.619 8.93282 26.8798L37.5328 39.9132C38.4014 40.3093 39.3449 40.5144 40.2995 40.5144C41.2541 40.5144 42.1976 40.3093 43.0662 39.9132L71.6662 26.9132C72.2577 26.6524 72.7606 26.2252 73.1136 25.6837C73.4667 25.1421 73.6546 24.5096 73.6546 23.8632C73.6546 23.2167 73.4667 22.5842 73.1136 22.0427C72.7606 21.5012 72.2577 21.074 71.6662 20.8132L43.0328 7.77984Z" stroke="#037EBA" stroke-width="2" stroke-linecap="round" stroke-linejoin="round"/>
<path d="M20.5326 32.1799L8.86598 37.5132C8.29332 37.7824 7.80912 38.209 7.46995 38.7432C7.13079 39.2774 6.95068 39.8971 6.95068 40.5299C6.95068 41.1626 7.13079 41.7823 7.46995 42.3165C7.80912 42.8507 8.29332 43.2773 8.86598 43.5465L37.5326 56.5799C38.3967 56.9711 39.3342 57.1735 40.2826 57.1735C41.2311 57.1735 42.1686 56.9711 43.0326 56.5799L71.6326 43.5799C72.2241 43.3191 72.7271 42.8919 73.0801 42.3503C73.4332 41.8088 73.6211 41.1763 73.6211 40.5299C73.6211 39.8834 73.4332 39.2509 73.0801 38.7094C72.7271 38.1679 72.2241 37.7407 71.6326 37.4799L59.966 32.1799" stroke="#037EBA" stroke-width="2" stroke-linecap="round" stroke-linejoin="round"/>
<path d="M20.5326 48.8465L8.86598 54.1798C8.29332 54.449 7.80912 54.8756 7.46995 55.4098C7.13079 55.944 6.95068 56.5637 6.95068 57.1965C6.95068 57.8293 7.13079 58.449 7.46995 58.9832C7.80912 59.5174 8.29332 59.944 8.86598 60.2132L37.5326 73.2465C38.3967 73.6377 39.3342 73.8401 40.2826 73.8401C41.2311 73.8401 42.1686 73.6377 43.0326 73.2465L71.6326 60.2465C72.2241 59.9857 72.7271 59.5585 73.0801 59.017C73.4332 58.4754 73.6211 57.8429 73.6211 57.1965C73.6211 56.55 73.4332 55.9175 73.0801 55.376C72.7271 54.8345 72.2241 54.4073 71.6326 54.1465L59.966 48.8465" stroke="#037EBA" stroke-width="2" stroke-linecap="round" stroke-linejoin="round"/>
</svg>
