<?xml version="1.0" standalone="no"?>
<!DOCTYPE svg PUBLIC "-//W3C//DTD SVG 20010904//EN"
 "http://www.w3.org/TR/2001/REC-SVG-20010904/DTD/svg10.dtd">
<svg version="1.0" xmlns="http://www.w3.org/2000/svg"
 width="768.000000pt" height="768.000000pt" viewBox="0 0 768.000000 768.000000"
 preserveAspectRatio="xMidYMid meet">
<metadata>
Created by potrace 1.14, written by Peter Selinger 2001-2017
</metadata>
<g transform="translate(0.000000,768.000000) scale(0.100000,-0.100000)"
fill="#000000" stroke="none">
<path d="M3870 7657 c-33 -20 -100 -80 -100 -89 0 -3 -50 -94 -111 -204 -60
-109 -131 -237 -156 -284 -26 -47 -54 -98 -64 -115 -10 -16 -28 -50 -41 -75
-13 -25 -25 -47 -28 -50 -3 -3 -16 -27 -30 -55 -14 -27 -28 -52 -33 -53 -4 -2
-5 -8 -1 -13 3 -5 1 -9 -3 -9 -5 0 -31 -43 -57 -96 -76 -148 -71 -197 39 -369
25 -38 48 -77 52 -85 7 -14 83 -148 103 -180 11 -18 160 -277 176 -305 19 -34
85 -149 94 -165 5 -8 30 -51 55 -95 25 -44 50 -87 55 -95 17 -25 312 -543 327
-572 8 -15 18 -30 24 -33 5 -4 9 -15 9 -25 0 -10 4 -20 8 -22 7 -2 53 -81 160
-268 10 -19 33 -59 51 -88 17 -29 31 -55 31 -58 0 -3 16 -30 35 -60 19 -30 35
-57 35 -60 0 -3 20 -39 45 -80 25 -40 45 -76 45 -78 0 -2 18 -34 40 -70 22
-36 40 -70 40 -76 0 -5 4 -10 9 -10 5 0 14 -12 20 -27 6 -16 15 -35 21 -43 5
-8 24 -40 41 -70 18 -30 40 -68 49 -85 163 -275 252 -449 261 -503 0 -4 4 -11
9 -17 7 -9 39 -128 56 -210 10 -49 12 -292 3 -334 -5 -21 -11 -53 -13 -72 -9
-64 -46 -181 -77 -241 -5 -10 -9 -24 -9 -32 0 -7 -7 -19 -15 -26 -9 -7 -13
-15 -11 -18 6 -6 -66 -122 -120 -192 -56 -73 -173 -184 -241 -227 -15 -9 -30
-20 -33 -24 -10 -12 -128 -76 -196 -106 -59 -26 -128 -50 -156 -53 -4 -1 -22
-6 -40 -11 -61 -18 -122 -24 -253 -24 -167 1 -237 11 -377 55 -176 55 -330
150 -463 284 -107 108 -158 182 -295 421 -56 99 -109 191 -118 205 -9 14 -17
27 -17 30 0 3 -8 16 -16 30 -31 50 -454 783 -506 879 -14 25 -29 51 -33 56 -4
6 -23 39 -42 75 l-36 66 23 39 c13 22 58 101 100 175 43 74 89 156 104 183 23
42 51 63 51 38 0 -5 23 -46 50 -91 28 -45 50 -83 50 -86 0 -4 47 -83 79 -134
8 -14 16 -27 16 -30 0 -3 8 -16 17 -30 35 -55 88 -152 88 -161 0 -5 5 -9 10
-9 6 0 10 -4 10 -10 0 -5 20 -44 45 -86 25 -41 45 -80 45 -85 0 -5 5 -9 10 -9
6 0 10 -4 10 -10 0 -8 20 -44 100 -180 19 -31 74 -126 90 -155 119 -208 389
-669 411 -700 113 -163 283 -265 485 -291 74 -10 193 -7 249 6 28 6 57 13 66
15 105 22 291 155 347 248 9 15 20 27 24 27 4 0 8 5 8 11 0 6 9 23 20 39 20
28 78 165 86 204 19 87 23 196 10 276 -11 64 -54 186 -87 245 -16 27 -39 70
-52 95 -13 25 -34 63 -48 85 -14 22 -29 47 -33 55 -4 8 -12 24 -19 35 -7 11
-25 43 -41 70 -16 28 -60 102 -97 165 -36 63 -76 131 -87 150 -10 19 -43 75
-71 123 -28 49 -51 91 -51 95 0 3 -6 13 -14 21 -14 16 -66 108 -95 169 -8 17
-19 32 -23 32 -4 0 -8 4 -8 8 0 5 -56 106 -125 226 -69 120 -125 222 -125 227
0 5 -3 9 -8 9 -4 0 -15 17 -25 38 -10 20 -23 46 -30 57 -23 39 -148 256 -174
303 -24 43 -154 271 -209 367 -13 22 -33 58 -45 80 -51 93 -130 202 -170 233
-96 73 -215 65 -301 -19 -51 -51 -72 -103 -72 -179 0 -68 18 -111 131 -305 19
-33 39 -72 46 -87 6 -16 15 -28 19 -28 4 0 8 -4 8 -9 0 -5 23 -48 50 -96 28
-48 50 -91 50 -96 0 -5 4 -9 9 -9 5 0 11 -6 13 -13 2 -10 140 -254 178 -317
40 -65 180 -311 180 -316 0 -3 14 -26 30 -51 17 -24 30 -46 30 -48 0 -2 54
-96 120 -210 66 -114 120 -208 120 -210 0 -2 27 -49 60 -104 33 -56 60 -106
60 -111 0 -6 3 -10 8 -10 4 0 18 -21 32 -47 13 -27 34 -64 46 -83 11 -19 32
-55 46 -80 14 -25 48 -85 77 -134 28 -49 51 -92 51 -97 0 -4 4 -9 8 -11 12 -5
140 -239 147 -269 12 -50 12 -95 -1 -132 -17 -47 -70 -117 -90 -117 -8 0 -14
-4 -14 -9 0 -7 -14 -14 -55 -26 -41 -12 -83 -11 -124 1 -86 25 -123 73 -285
357 -13 23 -88 152 -166 287 -78 135 -156 270 -173 300 -16 30 -35 62 -42 70
-7 8 -15 22 -18 30 -4 8 -19 36 -34 62 -15 25 -56 95 -90 155 -35 59 -69 119
-78 133 -76 128 -185 321 -185 330 0 5 -4 10 -10 10 -5 0 -10 6 -10 13 0 7 -6
19 -12 26 -7 6 -13 15 -13 19 0 4 -8 18 -16 32 -30 47 -79 130 -79 134 0 3
-99 174 -138 237 -15 25 -73 71 -96 76 -6 1 -27 6 -47 11 -52 13 -133 6 -184
-17 -67 -30 -90 -57 -162 -191 -38 -70 -222 -396 -243 -430 -5 -8 -21 -37 -36
-65 -14 -27 -32 -57 -40 -66 -8 -8 -14 -18 -14 -22 0 -3 -32 -61 -72 -129 -39
-68 -79 -143 -88 -168 -34 -91 -13 -152 132 -397 7 -12 28 -50 47 -85 18 -35
40 -70 47 -79 8 -8 14 -18 14 -21 0 -4 23 -45 50 -93 27 -48 50 -88 50 -90 0
-2 18 -33 40 -69 22 -36 40 -68 40 -71 0 -2 16 -29 35 -60 19 -30 40 -65 45
-77 5 -13 21 -41 35 -63 14 -22 28 -47 32 -55 4 -8 40 -70 80 -138 40 -68 73
-125 73 -127 0 -2 18 -33 40 -67 22 -35 40 -68 40 -75 0 -6 3 -13 8 -15 4 -1
18 -23 31 -48 41 -77 173 -294 195 -322 12 -14 32 -41 46 -59 135 -180 327
-337 555 -454 246 -127 441 -176 720 -180 180 -3 293 9 445 47 46 11 89 21 95
23 5 1 21 6 35 12 14 6 51 20 82 31 127 47 284 137 403 231 130 102 305 292
375 407 13 21 27 41 30 44 12 10 99 187 130 265 50 124 91 299 108 455 12 121
7 337 -12 426 -2 12 -7 39 -10 60 -21 133 -122 396 -201 524 -12 19 -33 55
-47 80 -24 43 -47 83 -87 153 -10 17 -47 82 -83 143 -36 61 -68 117 -71 125
-4 8 -11 21 -17 29 -34 53 -90 152 -90 160 0 6 -4 10 -10 10 -5 0 -10 5 -10
11 0 6 -36 71 -80 146 -44 74 -80 137 -80 139 0 2 -18 33 -40 69 -22 36 -40
67 -40 69 0 2 -27 50 -60 105 -33 56 -60 104 -60 107 0 3 -13 25 -30 48 -16
24 -27 46 -24 48 2 3 -2 11 -11 18 -8 7 -15 19 -15 26 0 8 -4 14 -10 14 -5 0
-10 5 -10 10 0 13 -92 174 -102 178 -5 2 -8 8 -8 13 0 5 -34 69 -77 142 -42
72 -90 157 -106 187 -16 30 -35 62 -41 70 -11 15 -21 32 -57 98 -11 20 -29 53
-41 72 -245 421 -368 640 -372 661 -4 24 18 78 73 174 33 60 100 181 121 220
12 22 29 51 39 64 l18 23 25 -43 c14 -24 37 -64 50 -89 14 -25 48 -85 76 -134
29 -49 52 -90 52 -92 0 -2 37 -67 83 -146 72 -124 193 -331 308 -531 19 -32
48 -83 65 -114 17 -30 36 -62 43 -72 18 -26 61 -104 68 -123 3 -10 9 -18 14
-18 5 0 9 -4 9 -10 0 -5 14 -33 31 -62 18 -29 45 -78 62 -108 16 -30 35 -62
41 -70 6 -8 16 -24 22 -35 25 -47 68 -122 176 -310 64 -110 124 -216 134 -235
11 -19 21 -37 24 -40 9 -9 51 -84 63 -112 6 -16 15 -28 19 -28 4 0 8 -4 8 -8
0 -5 61 -114 136 -243 75 -129 150 -259 166 -289 17 -30 46 -79 64 -108 19
-29 34 -54 34 -56 0 -3 23 -44 51 -93 46 -79 121 -229 162 -323 48 -111 106
-323 131 -480 28 -175 23 -475 -9 -650 -4 -19 -8 -44 -9 -55 -2 -11 -6 -33
-10 -50 -3 -16 -8 -39 -10 -50 -20 -105 -87 -300 -154 -445 -21 -45 -120 -218
-141 -246 -9 -12 -23 -32 -31 -44 -71 -106 -263 -315 -369 -400 -24 -19 -48
-39 -55 -45 -87 -77 -276 -196 -418 -265 -106 -50 -292 -121 -358 -136 -11 -2
-30 -6 -42 -9 -181 -43 -308 -58 -498 -58 -175 0 -284 10 -455 44 -107 22
-109 22 -255 69 -101 33 -420 185 -420 201 0 5 -5 9 -11 9 -5 0 -37 19 -71 42
-33 24 -67 48 -76 53 -63 41 -252 232 -367 370 -22 27 -45 53 -50 59 -6 6 -26
31 -45 56 -19 25 -37 47 -40 50 -3 3 -22 28 -41 55 -18 28 -37 52 -40 55 -3 3
-42 60 -86 126 -144 217 -263 436 -402 737 -23 49 -41 92 -41 95 0 3 -9 24
-19 46 -11 23 -33 71 -50 109 -37 80 -52 99 -106 137 -32 22 -111 47 -135 43
-3 -1 -22 -4 -43 -7 -74 -12 -138 -61 -178 -138 -31 -60 -26 -159 12 -244 44
-98 62 -139 99 -224 36 -84 174 -361 214 -430 14 -25 29 -52 33 -60 14 -31
156 -263 199 -326 93 -136 191 -272 204 -284 4 -3 32 -37 63 -77 32 -40 67
-83 80 -97 12 -14 40 -46 62 -73 258 -305 525 -499 947 -687 129 -58 379 -130
558 -162 14 -2 34 -6 45 -9 11 -2 45 -7 75 -10 30 -3 73 -8 95 -11 53 -8 390
-8 435 0 19 3 60 8 90 11 30 3 69 7 85 10 17 2 48 7 70 10 22 2 63 10 90 17
28 7 54 11 58 10 4 -1 16 2 26 7 10 6 32 13 48 16 17 2 59 14 94 25 35 10 67
19 72 19 4 1 21 8 37 16 16 8 33 16 37 16 13 2 35 11 80 30 23 11 45 19 48 19
13 0 250 123 253 131 2 5 10 9 17 9 17 0 240 149 335 225 372 295 660 703 833
1180 35 98 72 222 83 280 2 11 6 31 9 45 10 48 15 75 21 110 3 19 7 45 9 58
34 207 32 569 -5 777 -6 33 -13 74 -16 92 -15 112 -75 322 -131 463 -41 104
-147 320 -201 410 -12 19 -30 51 -40 70 -10 19 -46 82 -79 140 -33 58 -69 121
-79 140 -10 19 -22 37 -26 38 -5 2 -8 7 -8 11 0 8 -120 220 -164 289 -14 23
-26 44 -26 46 0 2 -20 39 -45 80 -25 42 -45 81 -45 86 0 6 -4 10 -10 10 -5 0
-10 4 -10 10 0 5 -27 55 -60 111 -33 55 -60 102 -60 104 0 1 -54 95 -120 209
-66 113 -120 210 -120 216 0 5 -4 10 -8 10 -4 0 -15 15 -23 33 -9 17 -32 59
-51 92 -19 33 -77 132 -128 220 -154 267 -158 274 -210 365 -24 41 -80 139
-126 218 -46 79 -84 146 -84 149 0 4 -6 14 -14 22 -7 9 -27 41 -43 71 -17 30
-53 95 -82 143 -28 49 -51 93 -51 98 0 5 -4 9 -9 9 -5 0 -11 8 -14 18 -3 9
-19 40 -35 67 -16 28 -39 68 -52 90 -12 22 -46 81 -76 132 -30 51 -54 97 -54
102 0 6 -4 11 -10 11 -5 0 -10 6 -10 14 0 7 -7 19 -15 26 -8 6 -13 16 -12 20
5 20 -81 121 -128 149 -45 27 -60 31 -120 30 -53 0 -79 -6 -105 -22z"/>
</g>
</svg>
